solid pixelfacet normal 1 0 0 
outer loop 
vertex -25 10 -15 
vertex -25 0 -15 
vertex -25 10 -25 
endloop 
endfacet 
facet normal 1 0 0 
outer loop 
vertex -25 0 -15 
vertex -25 0 -25 
vertex -25 10 -25 
endloop 
endfacet 
facet normal -1 0 0 
outer loop 
vertex -35 10 -25 
vertex -35 0 -25 
vertex -35 10 -15 
endloop 
endfacet 
facet normal -1 0 0 
outer loop 
vertex -35 0 -25 
vertex -35 0 -15 
vertex -35 10 -15 
endloop 
endfacet 
facet normal 0 1 0 
outer loop 
vertex -35 10 -25 
vertex -35 10 -15 
vertex -25 10 -25 
endloop 
endfacet 
facet normal 0 1 0 
outer loop 
vertex -35 10 -15 
vertex -25 10 -15 
vertex -25 10 -25 
endloop 
endfacet 
facet normal 0 -1 0 
outer loop 
vertex -35 0 -15 
vertex -35 0 -25 
vertex -25 0 -15 
endloop 
endfacet 
facet normal 0 -1 0 
outer loop 
vertex -35 0 -25 
vertex -25 0 -25 
vertex -25 0 -15 
endloop 
endfacet 
facet normal 0 0 1 
outer loop 
vertex -35 10 -15 
vertex -35 0 -15 
vertex -25 10 -15 
endloop 
endfacet 
facet normal 0 0 1 
outer loop 
vertex -35 0 -15 
vertex -25 0 -15 
vertex -25 10 -15 
endloop 
endfacet 
facet normal 0 0 -1 
outer loop 
vertex -25 10 -25 
vertex -25 0 -25 
vertex -35 10 -25 
endloop 
endfacet 
facet normal 0 0 -1 
outer loop 
vertex -25 0 -25 
vertex -35 0 -25 
vertex -35 10 -25 
endloop 
endfacet 
facet normal 1 0 0 
outer loop 
vertex 5 10 -15 
vertex 5 0 -15 
vertex 5 10 -25 
endloop 
endfacet 
facet normal 1 0 0 
outer loop 
vertex 5 0 -15 
vertex 5 0 -25 
vertex 5 10 -25 
endloop 
endfacet 
facet normal -1 0 0 
outer loop 
vertex -5 10 -25 
vertex -5 0 -25 
vertex -5 10 -15 
endloop 
endfacet 
facet normal -1 0 0 
outer loop 
vertex -5 0 -25 
vertex -5 0 -15 
vertex -5 10 -15 
endloop 
endfacet 
facet normal 0 1 0 
outer loop 
vertex -5 10 -25 
vertex -5 10 -15 
vertex 5 10 -25 
endloop 
endfacet 
facet normal 0 1 0 
outer loop 
vertex -5 10 -15 
vertex 5 10 -15 
vertex 5 10 -25 
endloop 
endfacet 
facet normal 0 -1 0 
outer loop 
vertex -5 0 -15 
vertex -5 0 -25 
vertex 5 0 -15 
endloop 
endfacet 
facet normal 0 -1 0 
outer loop 
vertex -5 0 -25 
vertex 5 0 -25 
vertex 5 0 -15 
endloop 
endfacet 
facet normal 0 0 1 
outer loop 
vertex -5 10 -15 
vertex -5 0 -15 
vertex 5 10 -15 
endloop 
endfacet 
facet normal 0 0 1 
outer loop 
vertex -5 0 -15 
vertex 5 0 -15 
vertex 5 10 -15 
endloop 
endfacet 
facet normal 0 0 -1 
outer loop 
vertex 5 10 -25 
vertex 5 0 -25 
vertex -5 10 -25 
endloop 
endfacet 
facet normal 0 0 -1 
outer loop 
vertex 5 0 -25 
vertex -5 0 -25 
vertex -5 10 -25 
endloop 
endfacet 
facet normal 1 0 0 
outer loop 
vertex -15 10 -5 
vertex -15 0 -5 
vertex -15 10 -15 
endloop 
endfacet 
facet normal 1 0 0 
outer loop 
vertex -15 0 -5 
vertex -15 0 -15 
vertex -15 10 -15 
endloop 
endfacet 
facet normal -1 0 0 
outer loop 
vertex -25 10 -15 
vertex -25 0 -15 
vertex -25 10 -5 
endloop 
endfacet 
facet normal -1 0 0 
outer loop 
vertex -25 0 -15 
vertex -25 0 -5 
vertex -25 10 -5 
endloop 
endfacet 
facet normal 0 1 0 
outer loop 
vertex -25 10 -15 
vertex -25 10 -5 
vertex -15 10 -15 
endloop 
endfacet 
facet normal 0 1 0 
outer loop 
vertex -25 10 -5 
vertex -15 10 -5 
vertex -15 10 -15 
endloop 
endfacet 
facet normal 0 -1 0 
outer loop 
vertex -25 0 -5 
vertex -25 0 -15 
vertex -15 0 -5 
endloop 
endfacet 
facet normal 0 -1 0 
outer loop 
vertex -25 0 -15 
vertex -15 0 -15 
vertex -15 0 -5 
endloop 
endfacet 
facet normal 0 0 1 
outer loop 
vertex -25 10 -5 
vertex -25 0 -5 
vertex -15 10 -5 
endloop 
endfacet 
facet normal 0 0 1 
outer loop 
vertex -25 0 -5 
vertex -15 0 -5 
vertex -15 10 -5 
endloop 
endfacet 
facet normal 0 0 -1 
outer loop 
vertex -15 10 -15 
vertex -15 0 -15 
vertex -25 10 -15 
endloop 
endfacet 
facet normal 0 0 -1 
outer loop 
vertex -15 0 -15 
vertex -25 0 -15 
vertex -25 10 -15 
endloop 
endfacet 
facet normal 1 0 0 
outer loop 
vertex -5 10 5 
vertex -5 0 5 
vertex -5 10 -5 
endloop 
endfacet 
facet normal 1 0 0 
outer loop 
vertex -5 0 5 
vertex -5 0 -5 
vertex -5 10 -5 
endloop 
endfacet 
facet normal -1 0 0 
outer loop 
vertex -15 10 -5 
vertex -15 0 -5 
vertex -15 10 5 
endloop 
endfacet 
facet normal -1 0 0 
outer loop 
vertex -15 0 -5 
vertex -15 0 5 
vertex -15 10 5 
endloop 
endfacet 
facet normal 0 1 0 
outer loop 
vertex -15 10 -5 
vertex -15 10 5 
vertex -5 10 -5 
endloop 
endfacet 
facet normal 0 1 0 
outer loop 
vertex -15 10 5 
vertex -5 10 5 
vertex -5 10 -5 
endloop 
endfacet 
facet normal 0 -1 0 
outer loop 
vertex -15 0 5 
vertex -15 0 -5 
vertex -5 0 5 
endloop 
endfacet 
facet normal 0 -1 0 
outer loop 
vertex -15 0 -5 
vertex -5 0 -5 
vertex -5 0 5 
endloop 
endfacet 
facet normal 0 0 1 
outer loop 
vertex -15 10 5 
vertex -15 0 5 
vertex -5 10 5 
endloop 
endfacet 
facet normal 0 0 1 
outer loop 
vertex -15 0 5 
vertex -5 0 5 
vertex -5 10 5 
endloop 
endfacet 
facet normal 0 0 -1 
outer loop 
vertex -5 10 -5 
vertex -5 0 -5 
vertex -15 10 -5 
endloop 
endfacet 
facet normal 0 0 -1 
outer loop 
vertex -5 0 -5 
vertex -15 0 -5 
vertex -15 10 -5 
endloop 
endfacet 
facet normal 1 0 0 
outer loop 
vertex -15 10 5 
vertex -15 0 5 
vertex -15 10 -5 
endloop 
endfacet 
facet normal 1 0 0 
outer loop 
vertex -15 0 5 
vertex -15 0 -5 
vertex -15 10 -5 
endloop 
endfacet 
facet normal -1 0 0 
outer loop 
vertex -25 10 -5 
vertex -25 0 -5 
vertex -25 10 5 
endloop 
endfacet 
facet normal -1 0 0 
outer loop 
vertex -25 0 -5 
vertex -25 0 5 
vertex -25 10 5 
endloop 
endfacet 
facet normal 0 1 0 
outer loop 
vertex -25 10 -5 
vertex -25 10 5 
vertex -15 10 -5 
endloop 
endfacet 
facet normal 0 1 0 
outer loop 
vertex -25 10 5 
vertex -15 10 5 
vertex -15 10 -5 
endloop 
endfacet 
facet normal 0 -1 0 
outer loop 
vertex -25 0 5 
vertex -25 0 -5 
vertex -15 0 5 
endloop 
endfacet 
facet normal 0 -1 0 
outer loop 
vertex -25 0 -5 
vertex -15 0 -5 
vertex -15 0 5 
endloop 
endfacet 
facet normal 0 0 1 
outer loop 
vertex -25 10 5 
vertex -25 0 5 
vertex -15 10 5 
endloop 
endfacet 
facet normal 0 0 1 
outer loop 
vertex -25 0 5 
vertex -15 0 5 
vertex -15 10 5 
endloop 
endfacet 
facet normal 0 0 -1 
outer loop 
vertex -15 10 -5 
vertex -15 0 -5 
vertex -25 10 -5 
endloop 
endfacet 
facet normal 0 0 -1 
outer loop 
vertex -15 0 -5 
vertex -25 0 -5 
vertex -25 10 -5 
endloop 
endfacet 
facet normal 1 0 0 
outer loop 
vertex -15 20 -5 
vertex -15 10 -5 
vertex -15 20 -15 
endloop 
endfacet 
facet normal 1 0 0 
outer loop 
vertex -15 10 -5 
vertex -15 10 -15 
vertex -15 20 -15 
endloop 
endfacet 
facet normal -1 0 0 
outer loop 
vertex -25 20 -15 
vertex -25 10 -15 
vertex -25 20 -5 
endloop 
endfacet 
facet normal -1 0 0 
outer loop 
vertex -25 10 -15 
vertex -25 10 -5 
vertex -25 20 -5 
endloop 
endfacet 
facet normal 0 1 0 
outer loop 
vertex -25 20 -15 
vertex -25 20 -5 
vertex -15 20 -15 
endloop 
endfacet 
facet normal 0 1 0 
outer loop 
vertex -25 20 -5 
vertex -15 20 -5 
vertex -15 20 -15 
endloop 
endfacet 
facet normal 0 -1 0 
outer loop 
vertex -25 10 -5 
vertex -25 10 -15 
vertex -15 10 -5 
endloop 
endfacet 
facet normal 0 -1 0 
outer loop 
vertex -25 10 -15 
vertex -15 10 -15 
vertex -15 10 -5 
endloop 
endfacet 
facet normal 0 0 1 
outer loop 
vertex -25 20 -5 
vertex -25 10 -5 
vertex -15 20 -5 
endloop 
endfacet 
facet normal 0 0 1 
outer loop 
vertex -25 10 -5 
vertex -15 10 -5 
vertex -15 20 -5 
endloop 
endfacet 
facet normal 0 0 -1 
outer loop 
vertex -15 20 -15 
vertex -15 10 -15 
vertex -25 20 -15 
endloop 
endfacet 
facet normal 0 0 -1 
outer loop 
vertex -15 10 -15 
vertex -25 10 -15 
vertex -25 20 -15 
endloop 
endfacet 
endsolid pixel