solid pixelfacet normal 1 0 0 
outer loop 
vertex -5 10 35 
vertex -5 0 35 
vertex -5 10 25 
endloop 
endfacet 
facet normal 1 0 0 
outer loop 
vertex -5 0 35 
vertex -5 0 25 
vertex -5 10 25 
endloop 
endfacet 
facet normal -1 0 0 
outer loop 
vertex -15 10 25 
vertex -15 0 25 
vertex -15 10 35 
endloop 
endfacet 
facet normal -1 0 0 
outer loop 
vertex -15 0 25 
vertex -15 0 35 
vertex -15 10 35 
endloop 
endfacet 
facet normal 0 1 0 
outer loop 
vertex -15 10 25 
vertex -15 10 35 
vertex -5 10 25 
endloop 
endfacet 
facet normal 0 1 0 
outer loop 
vertex -15 10 35 
vertex -5 10 35 
vertex -5 10 25 
endloop 
endfacet 
facet normal 0 -1 0 
outer loop 
vertex -15 0 35 
vertex -15 0 25 
vertex -5 0 35 
endloop 
endfacet 
facet normal 0 -1 0 
outer loop 
vertex -15 0 25 
vertex -5 0 25 
vertex -5 0 35 
endloop 
endfacet 
facet normal 0 0 1 
outer loop 
vertex -15 10 35 
vertex -15 0 35 
vertex -5 10 35 
endloop 
endfacet 
facet normal 0 0 1 
outer loop 
vertex -15 0 35 
vertex -5 0 35 
vertex -5 10 35 
endloop 
endfacet 
facet normal 0 0 -1 
outer loop 
vertex -5 10 25 
vertex -5 0 25 
vertex -15 10 25 
endloop 
endfacet 
facet normal 0 0 -1 
outer loop 
vertex -5 0 25 
vertex -15 0 25 
vertex -15 10 25 
endloop 
endfacet 
facet normal 1 0 0 
outer loop 
vertex -15 10 15 
vertex -15 0 15 
vertex -15 10 5 
endloop 
endfacet 
facet normal 1 0 0 
outer loop 
vertex -15 0 15 
vertex -15 0 5 
vertex -15 10 5 
endloop 
endfacet 
facet normal -1 0 0 
outer loop 
vertex -25 10 5 
vertex -25 0 5 
vertex -25 10 15 
endloop 
endfacet 
facet normal -1 0 0 
outer loop 
vertex -25 0 5 
vertex -25 0 15 
vertex -25 10 15 
endloop 
endfacet 
facet normal 0 1 0 
outer loop 
vertex -25 10 5 
vertex -25 10 15 
vertex -15 10 5 
endloop 
endfacet 
facet normal 0 1 0 
outer loop 
vertex -25 10 15 
vertex -15 10 15 
vertex -15 10 5 
endloop 
endfacet 
facet normal 0 -1 0 
outer loop 
vertex -25 0 15 
vertex -25 0 5 
vertex -15 0 15 
endloop 
endfacet 
facet normal 0 -1 0 
outer loop 
vertex -25 0 5 
vertex -15 0 5 
vertex -15 0 15 
endloop 
endfacet 
facet normal 0 0 1 
outer loop 
vertex -25 10 15 
vertex -25 0 15 
vertex -15 10 15 
endloop 
endfacet 
facet normal 0 0 1 
outer loop 
vertex -25 0 15 
vertex -15 0 15 
vertex -15 10 15 
endloop 
endfacet 
facet normal 0 0 -1 
outer loop 
vertex -15 10 5 
vertex -15 0 5 
vertex -25 10 5 
endloop 
endfacet 
facet normal 0 0 -1 
outer loop 
vertex -15 0 5 
vertex -25 0 5 
vertex -25 10 5 
endloop 
endfacet 
facet normal 1 0 0 
outer loop 
vertex -15 10 45 
vertex -15 0 45 
vertex -15 10 35 
endloop 
endfacet 
facet normal 1 0 0 
outer loop 
vertex -15 0 45 
vertex -15 0 35 
vertex -15 10 35 
endloop 
endfacet 
facet normal -1 0 0 
outer loop 
vertex -25 10 35 
vertex -25 0 35 
vertex -25 10 45 
endloop 
endfacet 
facet normal -1 0 0 
outer loop 
vertex -25 0 35 
vertex -25 0 45 
vertex -25 10 45 
endloop 
endfacet 
facet normal 0 1 0 
outer loop 
vertex -25 10 35 
vertex -25 10 45 
vertex -15 10 35 
endloop 
endfacet 
facet normal 0 1 0 
outer loop 
vertex -25 10 45 
vertex -15 10 45 
vertex -15 10 35 
endloop 
endfacet 
facet normal 0 -1 0 
outer loop 
vertex -25 0 45 
vertex -25 0 35 
vertex -15 0 45 
endloop 
endfacet 
facet normal 0 -1 0 
outer loop 
vertex -25 0 35 
vertex -15 0 35 
vertex -15 0 45 
endloop 
endfacet 
facet normal 0 0 1 
outer loop 
vertex -25 10 45 
vertex -25 0 45 
vertex -15 10 45 
endloop 
endfacet 
facet normal 0 0 1 
outer loop 
vertex -25 0 45 
vertex -15 0 45 
vertex -15 10 45 
endloop 
endfacet 
facet normal 0 0 -1 
outer loop 
vertex -15 10 35 
vertex -15 0 35 
vertex -25 10 35 
endloop 
endfacet 
facet normal 0 0 -1 
outer loop 
vertex -15 0 35 
vertex -25 0 35 
vertex -25 10 35 
endloop 
endfacet 
facet normal 1 0 0 
outer loop 
vertex -15 10 55 
vertex -15 0 55 
vertex -15 10 45 
endloop 
endfacet 
facet normal 1 0 0 
outer loop 
vertex -15 0 55 
vertex -15 0 45 
vertex -15 10 45 
endloop 
endfacet 
facet normal -1 0 0 
outer loop 
vertex -25 10 45 
vertex -25 0 45 
vertex -25 10 55 
endloop 
endfacet 
facet normal -1 0 0 
outer loop 
vertex -25 0 45 
vertex -25 0 55 
vertex -25 10 55 
endloop 
endfacet 
facet normal 0 1 0 
outer loop 
vertex -25 10 45 
vertex -25 10 55 
vertex -15 10 45 
endloop 
endfacet 
facet normal 0 1 0 
outer loop 
vertex -25 10 55 
vertex -15 10 55 
vertex -15 10 45 
endloop 
endfacet 
facet normal 0 -1 0 
outer loop 
vertex -25 0 55 
vertex -25 0 45 
vertex -15 0 55 
endloop 
endfacet 
facet normal 0 -1 0 
outer loop 
vertex -25 0 45 
vertex -15 0 45 
vertex -15 0 55 
endloop 
endfacet 
facet normal 0 0 1 
outer loop 
vertex -25 10 55 
vertex -25 0 55 
vertex -15 10 55 
endloop 
endfacet 
facet normal 0 0 1 
outer loop 
vertex -25 0 55 
vertex -15 0 55 
vertex -15 10 55 
endloop 
endfacet 
facet normal 0 0 -1 
outer loop 
vertex -15 10 45 
vertex -15 0 45 
vertex -25 10 45 
endloop 
endfacet 
facet normal 0 0 -1 
outer loop 
vertex -15 0 45 
vertex -25 0 45 
vertex -25 10 45 
endloop 
endfacet 
endsolid pixel