solid pixelfacet normal 1 0 0 
outer loop 
vertex -25 50 125 
vertex -25 0 125 
vertex -25 50 75 
endloop 
endfacet 
facet normal 1 0 0 
outer loop 
vertex -25 0 125 
vertex -25 0 75 
vertex -25 50 75 
endloop 
endfacet 
facet normal -1 0 0 
outer loop 
vertex -75 50 75 
vertex -75 0 75 
vertex -75 50 125 
endloop 
endfacet 
facet normal -1 0 0 
outer loop 
vertex -75 0 75 
vertex -75 0 125 
vertex -75 50 125 
endloop 
endfacet 
facet normal 0 1 0 
outer loop 
vertex -75 50 75 
vertex -75 50 125 
vertex -25 50 75 
endloop 
endfacet 
facet normal 0 1 0 
outer loop 
vertex -75 50 125 
vertex -25 50 125 
vertex -25 50 75 
endloop 
endfacet 
facet normal 0 -1 0 
outer loop 
vertex -75 0 125 
vertex -75 0 75 
vertex -25 0 125 
endloop 
endfacet 
facet normal 0 -1 0 
outer loop 
vertex -75 0 75 
vertex -25 0 75 
vertex -25 0 125 
endloop 
endfacet 
facet normal 0 0 1 
outer loop 
vertex -75 50 125 
vertex -75 0 125 
vertex -25 50 125 
endloop 
endfacet 
facet normal 0 0 1 
outer loop 
vertex -75 0 125 
vertex -25 0 125 
vertex -25 50 125 
endloop 
endfacet 
facet normal 0 0 -1 
outer loop 
vertex -25 50 75 
vertex -25 0 75 
vertex -75 50 75 
endloop 
endfacet 
facet normal 0 0 -1 
outer loop 
vertex -25 0 75 
vertex -75 0 75 
vertex -75 50 75 
endloop 
endfacet 
endsolid pixel