solid pixelfacet normal 1 0 0 
outer loop 
vertex 5 10 15 
vertex 5 0 15 
vertex 5 10 5 
endloop 
endfacet 
facet normal 1 0 0 
outer loop 
vertex 5 0 15 
vertex 5 0 5 
vertex 5 10 5 
endloop 
endfacet 
facet normal -1 0 0 
outer loop 
vertex -5 10 5 
vertex -5 0 5 
vertex -5 10 15 
endloop 
endfacet 
facet normal -1 0 0 
outer loop 
vertex -5 0 5 
vertex -5 0 15 
vertex -5 10 15 
endloop 
endfacet 
facet normal 0 1 0 
outer loop 
vertex -5 10 5 
vertex -5 10 15 
vertex 5 10 5 
endloop 
endfacet 
facet normal 0 1 0 
outer loop 
vertex -5 10 15 
vertex 5 10 15 
vertex 5 10 5 
endloop 
endfacet 
facet normal 0 -1 0 
outer loop 
vertex -5 0 15 
vertex -5 0 5 
vertex 5 0 15 
endloop 
endfacet 
facet normal 0 -1 0 
outer loop 
vertex -5 0 5 
vertex 5 0 5 
vertex 5 0 15 
endloop 
endfacet 
facet normal 0 0 1 
outer loop 
vertex -5 10 15 
vertex -5 0 15 
vertex 5 10 15 
endloop 
endfacet 
facet normal 0 0 1 
outer loop 
vertex -5 0 15 
vertex 5 0 15 
vertex 5 10 15 
endloop 
endfacet 
facet normal 0 0 -1 
outer loop 
vertex 5 10 5 
vertex 5 0 5 
vertex -5 10 5 
endloop 
endfacet 
facet normal 0 0 -1 
outer loop 
vertex 5 0 5 
vertex -5 0 5 
vertex -5 10 5 
endloop 
endfacet 
facet normal 1 0 0 
outer loop 
vertex 5 20 15 
vertex 5 10 15 
vertex 5 20 5 
endloop 
endfacet 
facet normal 1 0 0 
outer loop 
vertex 5 10 15 
vertex 5 10 5 
vertex 5 20 5 
endloop 
endfacet 
facet normal -1 0 0 
outer loop 
vertex -5 20 5 
vertex -5 10 5 
vertex -5 20 15 
endloop 
endfacet 
facet normal -1 0 0 
outer loop 
vertex -5 10 5 
vertex -5 10 15 
vertex -5 20 15 
endloop 
endfacet 
facet normal 0 1 0 
outer loop 
vertex -5 20 5 
vertex -5 20 15 
vertex 5 20 5 
endloop 
endfacet 
facet normal 0 1 0 
outer loop 
vertex -5 20 15 
vertex 5 20 15 
vertex 5 20 5 
endloop 
endfacet 
facet normal 0 -1 0 
outer loop 
vertex -5 10 15 
vertex -5 10 5 
vertex 5 10 15 
endloop 
endfacet 
facet normal 0 -1 0 
outer loop 
vertex -5 10 5 
vertex 5 10 5 
vertex 5 10 15 
endloop 
endfacet 
facet normal 0 0 1 
outer loop 
vertex -5 20 15 
vertex -5 10 15 
vertex 5 20 15 
endloop 
endfacet 
facet normal 0 0 1 
outer loop 
vertex -5 10 15 
vertex 5 10 15 
vertex 5 20 15 
endloop 
endfacet 
facet normal 0 0 -1 
outer loop 
vertex 5 20 5 
vertex 5 10 5 
vertex -5 20 5 
endloop 
endfacet 
facet normal 0 0 -1 
outer loop 
vertex 5 10 5 
vertex -5 10 5 
vertex -5 20 5 
endloop 
endfacet 
endsolid pixel