solid STL file created by Vectorworks 2015 (Build 234280) (64-Bit)
 facet normal -1.00000000000000 0.00000000000000 0.00000000000000
  outer loop
   vertex 141.98599999999956 -855.06033689845026 634.99999999999977
   vertex 141.98599999999956 -709.01033689845019 634.99999999999977
   vertex 141.98599999999956 -709.01033689845019 609.59999999999980
  endloop
 endfacet
 facet normal -1.00000000000000 0.00000000000000 0.00000000000000
  outer loop
   vertex 141.98599999999956 -709.01033689845019 609.59999999999980
   vertex 141.98599999999956 -855.06033689845026 609.59999999999980
   vertex 141.98599999999956 -855.06033689845026 634.99999999999977
  endloop
 endfacet
 facet normal 0.00000000000000 0.00000000000000 -1.00000000000000
  outer loop
   vertex 141.98599999999956 -855.06033689845026 609.59999999999980
   vertex 141.98599999999956 -709.01033689845019 609.59999999999980
   vertex 472.18599999999947 -709.01033689845019 609.59999999999980
  endloop
 endfacet
 facet normal 0.00000000000000 -0.00000000000000 -1.00000000000000
  outer loop
   vertex 472.18599999999947 -709.01033689845019 609.59999999999980
   vertex 472.18599999999947 -855.06033689845026 609.59999999999980
   vertex 141.98599999999956 -855.06033689845026 609.59999999999980
  endloop
 endfacet
 facet normal 1.00000000000000 0.00000000000000 0.00000000000000
  outer loop
   vertex 472.18599999999958 -855.06033689845026 609.59999999999980
   vertex 472.18599999999958 -709.01033689845019 609.59999999999980
   vertex 472.18599999999958 -709.01033689845019 634.99999999999977
  endloop
 endfacet
 facet normal 1.00000000000000 0.00000000000000 0.00000000000000
  outer loop
   vertex 472.18599999999958 -709.01033689845019 634.99999999999977
   vertex 472.18599999999958 -855.06033689845026 634.99999999999977
   vertex 472.18599999999958 -855.06033689845026 609.59999999999980
  endloop
 endfacet
 facet normal -0.00000000000000 -1.00000000000000 0.00000000000000
  outer loop
   vertex 472.18599999999958 -855.06033689845026 634.99999999999977
   vertex 141.98599999999956 -855.06033689845026 634.99999999999977
   vertex 141.98599999999956 -855.06033689845026 609.59999999999980
  endloop
 endfacet
 facet normal 0.00000000000000 -1.00000000000000 0.00000000000000
  outer loop
   vertex 141.98599999999956 -855.06033689845026 609.59999999999980
   vertex 472.18599999999958 -855.06033689845026 609.59999999999980
   vertex 472.18599999999958 -855.06033689845026 634.99999999999977
  endloop
 endfacet
 facet normal 0.00000000000000 1.00000000000000 0.00000000000000
  outer loop
   vertex 472.18599999999958 -709.01033689845019 609.59999999999980
   vertex 141.98599999999956 -709.01033689845019 609.59999999999980
   vertex 141.98599999999956 -709.01033689845019 634.99999999999977
  endloop
 endfacet
 facet normal -0.00000000000000 1.00000000000000 0.00000000000000
  outer loop
   vertex 141.98599999999956 -709.01033689845019 634.99999999999977
   vertex 472.18599999999958 -709.01033689845019 634.99999999999977
   vertex 472.18599999999958 -709.01033689845019 609.59999999999980
  endloop
 endfacet
 facet normal 0.00000000000000 0.00000000000000 1.00000000000000
  outer loop
   vertex 141.98599999999971 -709.01033689845019 634.99999999999977
   vertex 141.98599999999971 -855.06033689845026 634.99999999999977
   vertex 259.91457142857109 -751.17361680392241 634.99999999999977
  endloop
 endfacet
 facet normal 0.00000000000000 0.00000000000000 1.00000000000000
  outer loop
   vertex 141.98599999999971 -855.06033689845026 634.99999999999977
   vertex 472.18599999999958 -855.06033689845026 634.99999999999977
   vertex 354.25742857142808 -751.17361680392241 634.99999999999977
  endloop
 endfacet
 facet normal 0.00000000000000 0.00000000000000 1.00000000000000
  outer loop
   vertex 354.25742857142808 -751.17361680392241 634.99999999999977
   vertex 259.91457142857109 -751.17361680392241 634.99999999999977
   vertex 141.98599999999971 -855.06033689845026 634.99999999999977
  endloop
 endfacet
 facet normal 0.00000000000000 0.00000000000000 1.00000000000000
  outer loop
   vertex 472.18599999999958 -709.01033689845019 634.99999999999977
   vertex 354.25742857142808 -725.77361680392232 634.99999999999977
   vertex 354.25742857142808 -751.17361680392241 634.99999999999977
  endloop
 endfacet
 facet normal 0.00000000000000 0.00000000000000 1.00000000000000
  outer loop
   vertex 472.18599999999958 -709.01033689845019 634.99999999999977
   vertex 141.98599999999971 -709.01033689845019 634.99999999999977
   vertex 259.91457142857109 -725.77361680392232 634.99999999999977
  endloop
 endfacet
 facet normal -0.00000000000000 0.00000000000000 1.00000000000000
  outer loop
   vertex 354.25742857142808 -751.17361680392241 634.99999999999977
   vertex 472.18599999999958 -855.06033689845026 634.99999999999977
   vertex 472.18599999999958 -709.01033689845019 634.99999999999977
  endloop
 endfacet
 facet normal 0.00000000000000 -0.00000000000000 1.00000000000000
  outer loop
   vertex 259.91457142857109 -751.17361680392241 634.99999999999977
   vertex 259.91457142857109 -725.77361680392232 634.99999999999977
   vertex 141.98599999999971 -709.01033689845019 634.99999999999977
  endloop
 endfacet
 facet normal 0.00000000000000 0.00000000000000 1.00000000000000
  outer loop
   vertex 259.91457142857109 -725.77361680392232 634.99999999999977
   vertex 354.25742857142808 -725.77361680392232 634.99999999999977
   vertex 472.18599999999958 -709.01033689845019 634.99999999999977
  endloop
 endfacet
 facet normal -1.00000000000000 0.00000000000000 0.00000000000000
  outer loop
   vertex 259.91457142857098 -725.77361680392232 634.99999999999977
   vertex 259.91457142857098 -751.17361680392241 634.99999999999977
   vertex 259.91457142857098 -751.17361680392241 660.39999999999986
  endloop
 endfacet
 facet normal -1.00000000000000 0.00000000000000 0.00000000000000
  outer loop
   vertex 259.91457142857098 -751.17361680392241 660.39999999999986
   vertex 259.91457142857098 -725.77361680392232 660.39999999999986
   vertex 259.91457142857098 -725.77361680392232 634.99999999999977
  endloop
 endfacet
 facet normal 0.00000000000000 0.00000000000000 1.00000000000000
  outer loop
   vertex 259.91457142857098 -725.77361680392232 660.39999999999986
   vertex 259.91457142857098 -751.17361680392241 660.39999999999986
   vertex 354.25742857142808 -751.17361680392241 660.39999999999986
  endloop
 endfacet
 facet normal 0.00000000000000 -0.00000000000000 1.00000000000000
  outer loop
   vertex 354.25742857142808 -751.17361680392241 660.39999999999986
   vertex 354.25742857142808 -725.77361680392232 660.39999999999986
   vertex 259.91457142857098 -725.77361680392232 660.39999999999986
  endloop
 endfacet
 facet normal 1.00000000000000 0.00000000000000 0.00000000000000
  outer loop
   vertex 354.25742857142808 -725.77361680392232 660.39999999999986
   vertex 354.25742857142808 -751.17361680392241 660.39999999999986
   vertex 354.25742857142808 -751.17361680392241 634.99999999999977
  endloop
 endfacet
 facet normal 1.00000000000000 0.00000000000000 0.00000000000000
  outer loop
   vertex 354.25742857142808 -751.17361680392241 634.99999999999977
   vertex 354.25742857142808 -725.77361680392232 634.99999999999977
   vertex 354.25742857142808 -725.77361680392232 660.39999999999986
  endloop
 endfacet
 facet normal 0.00000000000000 1.00000000000000 0.00000000000000
  outer loop
   vertex 354.25742857142808 -725.77361680392232 634.99999999999977
   vertex 259.91457142857098 -725.77361680392232 634.99999999999977
   vertex 259.91457142857098 -725.77361680392232 660.39999999999986
  endloop
 endfacet
 facet normal -0.00000000000000 1.00000000000000 0.00000000000000
  outer loop
   vertex 259.91457142857098 -725.77361680392232 660.39999999999986
   vertex 354.25742857142808 -725.77361680392232 660.39999999999986
   vertex 354.25742857142808 -725.77361680392232 634.99999999999977
  endloop
 endfacet
 facet normal -0.00000000000000 -1.00000000000000 0.00000000000000
  outer loop
   vertex 354.25742857142808 -751.17361680392241 660.39999999999986
   vertex 259.91457142857098 -751.17361680392241 660.39999999999986
   vertex 259.91457142857098 -751.17361680392241 634.99999999999977
  endloop
 endfacet
 facet normal 0.00000000000000 -1.00000000000000 0.00000000000000
  outer loop
   vertex 259.91457142857098 -751.17361680392241 634.99999999999977
   vertex 354.25742857142808 -751.17361680392241 634.99999999999977
   vertex 354.25742857142808 -751.17361680392241 660.39999999999986
  endloop
 endfacet
 facet normal -1.00000000000000 0.00000000000000 0.00000000000000
  outer loop
   vertex 141.98599999999956 -702.66033689845017 634.99999999999989
   vertex 141.98599999999956 -556.61033689845021 634.99999999999989
   vertex 141.98599999999956 -556.61033689845021 609.60000000000002
  endloop
 endfacet
 facet normal -1.00000000000000 0.00000000000000 0.00000000000000
  outer loop
   vertex 141.98599999999956 -556.61033689845021 609.60000000000002
   vertex 141.98599999999956 -702.66033689845017 609.60000000000002
   vertex 141.98599999999956 -702.66033689845017 634.99999999999989
  endloop
 endfacet
 facet normal 0.00000000000000 0.00000000000000 -1.00000000000000
  outer loop
   vertex 141.98599999999956 -702.66033689845017 609.60000000000002
   vertex 141.98599999999956 -556.61033689845021 609.60000000000002
   vertex 472.18599999999947 -556.61033689845021 609.60000000000002
  endloop
 endfacet
 facet normal 0.00000000000000 -0.00000000000000 -1.00000000000000
  outer loop
   vertex 472.18599999999947 -556.61033689845021 609.60000000000002
   vertex 472.18599999999947 -702.66033689845017 609.60000000000002
   vertex 141.98599999999956 -702.66033689845017 609.60000000000002
  endloop
 endfacet
 facet normal 1.00000000000000 0.00000000000000 0.00000000000000
  outer loop
   vertex 472.18599999999958 -702.66033689845017 609.60000000000002
   vertex 472.18599999999958 -556.61033689845021 609.60000000000002
   vertex 472.18599999999958 -556.61033689845021 634.99999999999989
  endloop
 endfacet
 facet normal 1.00000000000000 0.00000000000000 0.00000000000000
  outer loop
   vertex 472.18599999999958 -556.61033689845021 634.99999999999989
   vertex 472.18599999999958 -702.66033689845017 634.99999999999989
   vertex 472.18599999999958 -702.66033689845017 609.60000000000002
  endloop
 endfacet
 facet normal -0.00000000000000 -1.00000000000000 0.00000000000000
  outer loop
   vertex 472.18599999999958 -702.66033689845017 634.99999999999989
   vertex 141.98599999999956 -702.66033689845017 634.99999999999989
   vertex 141.98599999999956 -702.66033689845017 609.60000000000002
  endloop
 endfacet
 facet normal 0.00000000000000 -1.00000000000000 0.00000000000000
  outer loop
   vertex 141.98599999999956 -702.66033689845017 609.60000000000002
   vertex 472.18599999999958 -702.66033689845017 609.60000000000002
   vertex 472.18599999999958 -702.66033689845017 634.99999999999989
  endloop
 endfacet
 facet normal 0.00000000000000 1.00000000000000 0.00000000000000
  outer loop
   vertex 472.18599999999958 -556.61033689845021 609.60000000000002
   vertex 141.98599999999956 -556.61033689845021 609.60000000000002
   vertex 141.98599999999956 -556.61033689845021 634.99999999999989
  endloop
 endfacet
 facet normal -0.00000000000000 1.00000000000000 0.00000000000000
  outer loop
   vertex 141.98599999999956 -556.61033689845021 634.99999999999989
   vertex 472.18599999999958 -556.61033689845021 634.99999999999989
   vertex 472.18599999999958 -556.61033689845021 609.60000000000002
  endloop
 endfacet
 facet normal 0.00000000000000 0.00000000000000 1.00000000000000
  outer loop
   vertex 141.98599999999971 -556.61033689845021 634.99999999999989
   vertex 141.98599999999971 -702.66033689845017 634.99999999999989
   vertex 259.91457142857109 -598.77361680391959 634.99999999999989
  endloop
 endfacet
 facet normal 0.00000000000000 0.00000000000000 1.00000000000000
  outer loop
   vertex 141.98599999999971 -702.66033689845017 634.99999999999989
   vertex 472.18599999999958 -702.66033689845017 634.99999999999989
   vertex 354.25742857142808 -598.77361680391959 634.99999999999989
  endloop
 endfacet
 facet normal 0.00000000000000 0.00000000000000 1.00000000000000
  outer loop
   vertex 354.25742857142808 -598.77361680391959 634.99999999999989
   vertex 259.91457142857109 -598.77361680391959 634.99999999999989
   vertex 141.98599999999971 -702.66033689845017 634.99999999999989
  endloop
 endfacet
 facet normal 0.00000000000000 0.00000000000000 1.00000000000000
  outer loop
   vertex 472.18599999999958 -556.61033689845021 634.99999999999989
   vertex 354.25742857142808 -573.37361680391962 634.99999999999989
   vertex 354.25742857142808 -598.77361680391959 634.99999999999989
  endloop
 endfacet
 facet normal 0.00000000000000 0.00000000000000 1.00000000000000
  outer loop
   vertex 472.18599999999958 -556.61033689845021 634.99999999999989
   vertex 141.98599999999971 -556.61033689845021 634.99999999999989
   vertex 259.91457142857109 -573.37361680391962 634.99999999999989
  endloop
 endfacet
 facet normal -0.00000000000000 0.00000000000000 1.00000000000000
  outer loop
   vertex 354.25742857142808 -598.77361680391959 634.99999999999989
   vertex 472.18599999999958 -702.66033689845017 634.99999999999989
   vertex 472.18599999999958 -556.61033689845021 634.99999999999989
  endloop
 endfacet
 facet normal 0.00000000000000 -0.00000000000000 1.00000000000000
  outer loop
   vertex 259.91457142857109 -598.77361680391959 634.99999999999989
   vertex 259.91457142857109 -573.37361680391962 634.99999999999989
   vertex 141.98599999999971 -556.61033689845021 634.99999999999989
  endloop
 endfacet
 facet normal 0.00000000000000 0.00000000000000 1.00000000000000
  outer loop
   vertex 259.91457142857109 -573.37361680391962 634.99999999999989
   vertex 354.25742857142808 -573.37361680391962 634.99999999999989
   vertex 472.18599999999958 -556.61033689845021 634.99999999999989
  endloop
 endfacet
 facet normal -1.00000000000000 0.00000000000000 0.00000000000000
  outer loop
   vertex 259.91457142857098 -573.37361680391962 634.99999999999989
   vertex 259.91457142857098 -598.77361680391959 634.99999999999989
   vertex 259.91457142857098 -598.77361680391959 660.40000000000009
  endloop
 endfacet
 facet normal -1.00000000000000 0.00000000000000 0.00000000000000
  outer loop
   vertex 259.91457142857098 -598.77361680391959 660.40000000000009
   vertex 259.91457142857098 -573.37361680391962 660.40000000000009
   vertex 259.91457142857098 -573.37361680391962 634.99999999999989
  endloop
 endfacet
 facet normal 0.00000000000000 0.00000000000000 1.00000000000000
  outer loop
   vertex 259.91457142857098 -573.37361680391962 660.40000000000009
   vertex 259.91457142857098 -598.77361680391959 660.40000000000009
   vertex 354.25742857142808 -598.77361680391959 660.40000000000009
  endloop
 endfacet
 facet normal 0.00000000000000 -0.00000000000000 1.00000000000000
  outer loop
   vertex 354.25742857142808 -598.77361680391959 660.40000000000009
   vertex 354.25742857142808 -573.37361680391962 660.40000000000009
   vertex 259.91457142857098 -573.37361680391962 660.40000000000009
  endloop
 endfacet
 facet normal 1.00000000000000 0.00000000000000 0.00000000000000
  outer loop
   vertex 354.25742857142808 -573.37361680391962 660.40000000000009
   vertex 354.25742857142808 -598.77361680391959 660.40000000000009
   vertex 354.25742857142808 -598.77361680391959 634.99999999999989
  endloop
 endfacet
 facet normal 1.00000000000000 0.00000000000000 0.00000000000000
  outer loop
   vertex 354.25742857142808 -598.77361680391959 634.99999999999989
   vertex 354.25742857142808 -573.37361680391962 634.99999999999989
   vertex 354.25742857142808 -573.37361680391962 660.40000000000009
  endloop
 endfacet
 facet normal 0.00000000000000 1.00000000000000 0.00000000000000
  outer loop
   vertex 354.25742857142808 -573.37361680391962 634.99999999999989
   vertex 259.91457142857098 -573.37361680391962 634.99999999999989
   vertex 259.91457142857098 -573.37361680391962 660.40000000000009
  endloop
 endfacet
 facet normal -0.00000000000000 1.00000000000000 0.00000000000000
  outer loop
   vertex 259.91457142857098 -573.37361680391962 660.40000000000009
   vertex 354.25742857142808 -573.37361680391962 660.40000000000009
   vertex 354.25742857142808 -573.37361680391962 634.99999999999989
  endloop
 endfacet
 facet normal -0.00000000000000 -1.00000000000000 0.00000000000000
  outer loop
   vertex 354.25742857142808 -598.77361680391959 660.40000000000009
   vertex 259.91457142857098 -598.77361680391959 660.40000000000009
   vertex 259.91457142857098 -598.77361680391959 634.99999999999989
  endloop
 endfacet
 facet normal 0.00000000000000 -1.00000000000000 0.00000000000000
  outer loop
   vertex 259.91457142857098 -598.77361680391959 634.99999999999989
   vertex 354.25742857142808 -598.77361680391959 634.99999999999989
   vertex 354.25742857142808 -598.77361680391959 660.40000000000009
  endloop
 endfacet
 facet normal -1.00000000000000 0.00000000000000 0.00000000000000
  outer loop
   vertex 141.98599999999956 -550.26033689845019 634.99999999999989
   vertex 141.98599999999956 -404.21033689845012 634.99999999999989
   vertex 141.98599999999956 -404.21033689845012 609.60000000000002
  endloop
 endfacet
 facet normal -1.00000000000000 0.00000000000000 0.00000000000000
  outer loop
   vertex 141.98599999999956 -404.21033689845012 609.60000000000002
   vertex 141.98599999999956 -550.26033689845019 609.60000000000002
   vertex 141.98599999999956 -550.26033689845019 634.99999999999989
  endloop
 endfacet
 facet normal 0.00000000000000 0.00000000000000 -1.00000000000000
  outer loop
   vertex 141.98599999999956 -550.26033689845019 609.60000000000002
   vertex 141.98599999999956 -404.21033689845012 609.60000000000002
   vertex 472.18599999999947 -404.21033689845012 609.60000000000002
  endloop
 endfacet
 facet normal 0.00000000000000 -0.00000000000000 -1.00000000000000
  outer loop
   vertex 472.18599999999947 -404.21033689845012 609.60000000000002
   vertex 472.18599999999947 -550.26033689845019 609.60000000000002
   vertex 141.98599999999956 -550.26033689845019 609.60000000000002
  endloop
 endfacet
 facet normal 1.00000000000000 0.00000000000000 0.00000000000000
  outer loop
   vertex 472.18599999999958 -550.26033689845019 609.60000000000002
   vertex 472.18599999999958 -404.21033689845012 609.60000000000002
   vertex 472.18599999999958 -404.21033689845012 634.99999999999989
  endloop
 endfacet
 facet normal 1.00000000000000 0.00000000000000 0.00000000000000
  outer loop
   vertex 472.18599999999958 -404.21033689845012 634.99999999999989
   vertex 472.18599999999958 -550.26033689845019 634.99999999999989
   vertex 472.18599999999958 -550.26033689845019 609.60000000000002
  endloop
 endfacet
 facet normal -0.00000000000000 -1.00000000000000 0.00000000000000
  outer loop
   vertex 472.18599999999958 -550.26033689845019 634.99999999999989
   vertex 141.98599999999956 -550.26033689845019 634.99999999999989
   vertex 141.98599999999956 -550.26033689845019 609.60000000000002
  endloop
 endfacet
 facet normal 0.00000000000000 -1.00000000000000 0.00000000000000
  outer loop
   vertex 141.98599999999956 -550.26033689845019 609.60000000000002
   vertex 472.18599999999958 -550.26033689845019 609.60000000000002
   vertex 472.18599999999958 -550.26033689845019 634.99999999999989
  endloop
 endfacet
 facet normal 0.00000000000000 1.00000000000000 0.00000000000000
  outer loop
   vertex 472.18599999999958 -404.21033689845012 609.60000000000002
   vertex 141.98599999999956 -404.21033689845012 609.60000000000002
   vertex 141.98599999999956 -404.21033689845012 634.99999999999989
  endloop
 endfacet
 facet normal -0.00000000000000 1.00000000000000 0.00000000000000
  outer loop
   vertex 141.98599999999956 -404.21033689845012 634.99999999999989
   vertex 472.18599999999958 -404.21033689845012 634.99999999999989
   vertex 472.18599999999958 -404.21033689845012 609.60000000000002
  endloop
 endfacet
 facet normal 0.00000000000000 0.00000000000000 1.00000000000000
  outer loop
   vertex 141.98599999999971 -404.21033689845012 634.99999999999989
   vertex 141.98599999999971 -550.26033689845019 634.99999999999989
   vertex 259.91457142857109 -446.37361680391939 634.99999999999989
  endloop
 endfacet
 facet normal 0.00000000000000 0.00000000000000 1.00000000000000
  outer loop
   vertex 141.98599999999971 -550.26033689845019 634.99999999999989
   vertex 472.18599999999958 -550.26033689845019 634.99999999999989
   vertex 354.25742857142808 -446.37361680391939 634.99999999999989
  endloop
 endfacet
 facet normal 0.00000000000000 0.00000000000000 1.00000000000000
  outer loop
   vertex 354.25742857142808 -446.37361680391939 634.99999999999989
   vertex 259.91457142857109 -446.37361680391939 634.99999999999989
   vertex 141.98599999999971 -550.26033689845019 634.99999999999989
  endloop
 endfacet
 facet normal 0.00000000000000 0.00000000000000 1.00000000000000
  outer loop
   vertex 472.18599999999958 -404.21033689845012 634.99999999999989
   vertex 354.25742857142808 -420.97361680391936 634.99999999999989
   vertex 354.25742857142808 -446.37361680391939 634.99999999999989
  endloop
 endfacet
 facet normal 0.00000000000000 0.00000000000000 1.00000000000000
  outer loop
   vertex 472.18599999999958 -404.21033689845012 634.99999999999989
   vertex 141.98599999999971 -404.21033689845012 634.99999999999989
   vertex 259.91457142857109 -420.97361680391936 634.99999999999989
  endloop
 endfacet
 facet normal -0.00000000000000 0.00000000000000 1.00000000000000
  outer loop
   vertex 354.25742857142808 -446.37361680391939 634.99999999999989
   vertex 472.18599999999958 -550.26033689845019 634.99999999999989
   vertex 472.18599999999958 -404.21033689845012 634.99999999999989
  endloop
 endfacet
 facet normal 0.00000000000000 -0.00000000000000 1.00000000000000
  outer loop
   vertex 259.91457142857109 -446.37361680391939 634.99999999999989
   vertex 259.91457142857109 -420.97361680391936 634.99999999999989
   vertex 141.98599999999971 -404.21033689845012 634.99999999999989
  endloop
 endfacet
 facet normal 0.00000000000000 0.00000000000000 1.00000000000000
  outer loop
   vertex 259.91457142857109 -420.97361680391936 634.99999999999989
   vertex 354.25742857142808 -420.97361680391936 634.99999999999989
   vertex 472.18599999999958 -404.21033689845012 634.99999999999989
  endloop
 endfacet
 facet normal -1.00000000000000 0.00000000000000 0.00000000000000
  outer loop
   vertex 259.91457142857098 -420.97361680391936 634.99999999999989
   vertex 259.91457142857098 -446.37361680391939 634.99999999999989
   vertex 259.91457142857098 -446.37361680391939 660.40000000000009
  endloop
 endfacet
 facet normal -1.00000000000000 0.00000000000000 0.00000000000000
  outer loop
   vertex 259.91457142857098 -446.37361680391939 660.40000000000009
   vertex 259.91457142857098 -420.97361680391936 660.40000000000009
   vertex 259.91457142857098 -420.97361680391936 634.99999999999989
  endloop
 endfacet
 facet normal 0.00000000000000 0.00000000000000 1.00000000000000
  outer loop
   vertex 259.91457142857098 -420.97361680391936 660.40000000000009
   vertex 259.91457142857098 -446.37361680391939 660.40000000000009
   vertex 354.25742857142808 -446.37361680391939 660.40000000000009
  endloop
 endfacet
 facet normal 0.00000000000000 -0.00000000000000 1.00000000000000
  outer loop
   vertex 354.25742857142808 -446.37361680391939 660.40000000000009
   vertex 354.25742857142808 -420.97361680391936 660.40000000000009
   vertex 259.91457142857098 -420.97361680391936 660.40000000000009
  endloop
 endfacet
 facet normal 1.00000000000000 0.00000000000000 0.00000000000000
  outer loop
   vertex 354.25742857142808 -420.97361680391936 660.40000000000009
   vertex 354.25742857142808 -446.37361680391939 660.40000000000009
   vertex 354.25742857142808 -446.37361680391939 634.99999999999989
  endloop
 endfacet
 facet normal 1.00000000000000 0.00000000000000 0.00000000000000
  outer loop
   vertex 354.25742857142808 -446.37361680391939 634.99999999999989
   vertex 354.25742857142808 -420.97361680391936 634.99999999999989
   vertex 354.25742857142808 -420.97361680391936 660.40000000000009
  endloop
 endfacet
 facet normal 0.00000000000000 1.00000000000000 0.00000000000000
  outer loop
   vertex 354.25742857142808 -420.97361680391936 634.99999999999989
   vertex 259.91457142857098 -420.97361680391936 634.99999999999989
   vertex 259.91457142857098 -420.97361680391936 660.40000000000009
  endloop
 endfacet
 facet normal -0.00000000000000 1.00000000000000 0.00000000000000
  outer loop
   vertex 259.91457142857098 -420.97361680391936 660.40000000000009
   vertex 354.25742857142808 -420.97361680391936 660.40000000000009
   vertex 354.25742857142808 -420.97361680391936 634.99999999999989
  endloop
 endfacet
 facet normal -0.00000000000000 -1.00000000000000 0.00000000000000
  outer loop
   vertex 354.25742857142808 -446.37361680391939 660.40000000000009
   vertex 259.91457142857098 -446.37361680391939 660.40000000000009
   vertex 259.91457142857098 -446.37361680391939 634.99999999999989
  endloop
 endfacet
 facet normal 0.00000000000000 -1.00000000000000 0.00000000000000
  outer loop
   vertex 259.91457142857098 -446.37361680391939 634.99999999999989
   vertex 354.25742857142808 -446.37361680391939 634.99999999999989
   vertex 354.25742857142808 -446.37361680391939 660.40000000000009
  endloop
 endfacet
 facet normal -1.00000000000000 0.00000000000000 0.00000000000000
  outer loop
   vertex -556.51400000000024 -855.06033689845026 634.99999999999989
   vertex -556.51400000000024 -709.01033689845019 634.99999999999989
   vertex -556.51400000000024 -709.01033689845019 609.60000000000002
  endloop
 endfacet
 facet normal -1.00000000000000 0.00000000000000 0.00000000000000
  outer loop
   vertex -556.51400000000024 -709.01033689845019 609.60000000000002
   vertex -556.51400000000024 -855.06033689845026 609.60000000000002
   vertex -556.51400000000024 -855.06033689845026 634.99999999999989
  endloop
 endfacet
 facet normal 0.00000000000000 0.00000000000000 -1.00000000000000
  outer loop
   vertex -556.51400000000024 -855.06033689845026 609.60000000000002
   vertex -556.51400000000024 -709.01033689845019 609.60000000000002
   vertex -226.31400000000031 -709.01033689845019 609.60000000000002
  endloop
 endfacet
 facet normal 0.00000000000000 -0.00000000000000 -1.00000000000000
  outer loop
   vertex -226.31400000000031 -709.01033689845019 609.60000000000002
   vertex -226.31400000000031 -855.06033689845026 609.60000000000002
   vertex -556.51400000000024 -855.06033689845026 609.60000000000002
  endloop
 endfacet
 facet normal 1.00000000000000 0.00000000000000 0.00000000000000
  outer loop
   vertex -226.31400000000031 -855.06033689845026 609.60000000000002
   vertex -226.31400000000031 -709.01033689845019 609.60000000000002
   vertex -226.31400000000031 -709.01033689845019 634.99999999999989
  endloop
 endfacet
 facet normal 1.00000000000000 0.00000000000000 0.00000000000000
  outer loop
   vertex -226.31400000000031 -709.01033689845019 634.99999999999989
   vertex -226.31400000000031 -855.06033689845026 634.99999999999989
   vertex -226.31400000000031 -855.06033689845026 609.60000000000002
  endloop
 endfacet
 facet normal -0.00000000000000 -1.00000000000000 0.00000000000000
  outer loop
   vertex -226.31400000000031 -855.06033689845026 634.99999999999989
   vertex -556.51400000000024 -855.06033689845026 634.99999999999989
   vertex -556.51400000000024 -855.06033689845026 609.60000000000002
  endloop
 endfacet
 facet normal 0.00000000000000 -1.00000000000000 0.00000000000000
  outer loop
   vertex -556.51400000000024 -855.06033689845026 609.60000000000002
   vertex -226.31400000000031 -855.06033689845026 609.60000000000002
   vertex -226.31400000000031 -855.06033689845026 634.99999999999989
  endloop
 endfacet
 facet normal 0.00000000000000 1.00000000000000 0.00000000000000
  outer loop
   vertex -226.31400000000031 -709.01033689845019 609.60000000000002
   vertex -556.51400000000024 -709.01033689845019 609.60000000000002
   vertex -556.51400000000024 -709.01033689845019 634.99999999999989
  endloop
 endfacet
 facet normal -0.00000000000000 1.00000000000000 0.00000000000000
  outer loop
   vertex -556.51400000000024 -709.01033689845019 634.99999999999989
   vertex -226.31400000000031 -709.01033689845019 634.99999999999989
   vertex -226.31400000000031 -709.01033689845019 609.60000000000002
  endloop
 endfacet
 facet normal 0.00000000000000 0.00000000000000 1.00000000000000
  outer loop
   vertex -556.51400000000024 -709.01033689845019 634.99999999999989
   vertex -556.51400000000024 -855.06033689845026 634.99999999999989
   vertex -438.58542857142885 -751.17361680392241 634.99999999999989
  endloop
 endfacet
 facet normal 0.00000000000000 0.00000000000000 1.00000000000000
  outer loop
   vertex -556.51400000000024 -855.06033689845026 634.99999999999989
   vertex -226.31400000000031 -855.06033689845026 634.99999999999989
   vertex -344.24257142857175 -751.17361680392241 634.99999999999989
  endloop
 endfacet
 facet normal 0.00000000000000 0.00000000000000 1.00000000000000
  outer loop
   vertex -344.24257142857175 -751.17361680392241 634.99999999999989
   vertex -438.58542857142885 -751.17361680392241 634.99999999999989
   vertex -556.51400000000024 -855.06033689845026 634.99999999999989
  endloop
 endfacet
 facet normal 0.00000000000000 0.00000000000000 1.00000000000000
  outer loop
   vertex -226.31400000000031 -709.01033689845019 634.99999999999989
   vertex -344.24257142857175 -725.77361680392232 634.99999999999989
   vertex -344.24257142857175 -751.17361680392241 634.99999999999989
  endloop
 endfacet
 facet normal 0.00000000000000 0.00000000000000 1.00000000000000
  outer loop
   vertex -226.31400000000031 -709.01033689845019 634.99999999999989
   vertex -556.51400000000024 -709.01033689845019 634.99999999999989
   vertex -438.58542857142885 -725.77361680392232 634.99999999999989
  endloop
 endfacet
 facet normal -0.00000000000000 0.00000000000000 1.00000000000000
  outer loop
   vertex -344.24257142857175 -751.17361680392241 634.99999999999989
   vertex -226.31400000000031 -855.06033689845026 634.99999999999989
   vertex -226.31400000000031 -709.01033689845019 634.99999999999989
  endloop
 endfacet
 facet normal 0.00000000000000 -0.00000000000000 1.00000000000000
  outer loop
   vertex -438.58542857142885 -751.17361680392241 634.99999999999989
   vertex -438.58542857142885 -725.77361680392232 634.99999999999989
   vertex -556.51400000000024 -709.01033689845019 634.99999999999989
  endloop
 endfacet
 facet normal 0.00000000000000 0.00000000000000 1.00000000000000
  outer loop
   vertex -438.58542857142885 -725.77361680392232 634.99999999999989
   vertex -344.24257142857175 -725.77361680392232 634.99999999999989
   vertex -226.31400000000031 -709.01033689845019 634.99999999999989
  endloop
 endfacet
 facet normal -1.00000000000000 0.00000000000000 0.00000000000000
  outer loop
   vertex -438.58542857142885 -725.77361680392232 634.99999999999989
   vertex -438.58542857142885 -751.17361680392241 634.99999999999989
   vertex -438.58542857142885 -751.17361680392241 660.40000000000009
  endloop
 endfacet
 facet normal -1.00000000000000 0.00000000000000 0.00000000000000
  outer loop
   vertex -438.58542857142885 -751.17361680392241 660.40000000000009
   vertex -438.58542857142885 -725.77361680392232 660.40000000000009
   vertex -438.58542857142885 -725.77361680392232 634.99999999999989
  endloop
 endfacet
 facet normal 0.00000000000000 0.00000000000000 1.00000000000000
  outer loop
   vertex -438.58542857142885 -725.77361680392232 660.40000000000009
   vertex -438.58542857142885 -751.17361680392241 660.40000000000009
   vertex -344.24257142857175 -751.17361680392241 660.40000000000009
  endloop
 endfacet
 facet normal 0.00000000000000 -0.00000000000000 1.00000000000000
  outer loop
   vertex -344.24257142857175 -751.17361680392241 660.40000000000009
   vertex -344.24257142857175 -725.77361680392232 660.40000000000009
   vertex -438.58542857142885 -725.77361680392232 660.40000000000009
  endloop
 endfacet
 facet normal 1.00000000000000 0.00000000000000 0.00000000000000
  outer loop
   vertex -344.24257142857175 -725.77361680392232 660.40000000000009
   vertex -344.24257142857175 -751.17361680392241 660.40000000000009
   vertex -344.24257142857175 -751.17361680392241 634.99999999999989
  endloop
 endfacet
 facet normal 1.00000000000000 0.00000000000000 0.00000000000000
  outer loop
   vertex -344.24257142857175 -751.17361680392241 634.99999999999989
   vertex -344.24257142857175 -725.77361680392232 634.99999999999989
   vertex -344.24257142857175 -725.77361680392232 660.40000000000009
  endloop
 endfacet
 facet normal 0.00000000000000 1.00000000000000 0.00000000000000
  outer loop
   vertex -344.24257142857175 -725.77361680392232 634.99999999999989
   vertex -438.58542857142885 -725.77361680392232 634.99999999999989
   vertex -438.58542857142885 -725.77361680392232 660.40000000000009
  endloop
 endfacet
 facet normal -0.00000000000000 1.00000000000000 0.00000000000000
  outer loop
   vertex -438.58542857142885 -725.77361680392232 660.40000000000009
   vertex -344.24257142857175 -725.77361680392232 660.40000000000009
   vertex -344.24257142857175 -725.77361680392232 634.99999999999989
  endloop
 endfacet
 facet normal -0.00000000000000 -1.00000000000000 0.00000000000000
  outer loop
   vertex -344.24257142857175 -751.17361680392241 660.40000000000009
   vertex -438.58542857142885 -751.17361680392241 660.40000000000009
   vertex -438.58542857142885 -751.17361680392241 634.99999999999989
  endloop
 endfacet
 facet normal 0.00000000000000 -1.00000000000000 0.00000000000000
  outer loop
   vertex -438.58542857142885 -751.17361680392241 634.99999999999989
   vertex -344.24257142857175 -751.17361680392241 634.99999999999989
   vertex -344.24257142857175 -751.17361680392241 660.40000000000009
  endloop
 endfacet
 facet normal -1.00000000000000 0.00000000000000 0.00000000000000
  outer loop
   vertex -556.51400000000024 -702.66033689845017 634.99999999999989
   vertex -556.51400000000024 -556.61033689845021 634.99999999999989
   vertex -556.51400000000024 -556.61033689845021 609.60000000000002
  endloop
 endfacet
 facet normal -1.00000000000000 0.00000000000000 0.00000000000000
  outer loop
   vertex -556.51400000000024 -556.61033689845021 609.60000000000002
   vertex -556.51400000000024 -702.66033689845017 609.60000000000002
   vertex -556.51400000000024 -702.66033689845017 634.99999999999989
  endloop
 endfacet
 facet normal 0.00000000000000 0.00000000000000 -1.00000000000000
  outer loop
   vertex -556.51400000000024 -702.66033689845017 609.60000000000002
   vertex -556.51400000000024 -556.61033689845021 609.60000000000002
   vertex -226.31400000000031 -556.61033689845021 609.60000000000002
  endloop
 endfacet
 facet normal 0.00000000000000 -0.00000000000000 -1.00000000000000
  outer loop
   vertex -226.31400000000031 -556.61033689845021 609.60000000000002
   vertex -226.31400000000031 -702.66033689845017 609.60000000000002
   vertex -556.51400000000024 -702.66033689845017 609.60000000000002
  endloop
 endfacet
 facet normal 1.00000000000000 0.00000000000000 0.00000000000000
  outer loop
   vertex -226.31400000000031 -702.66033689845017 609.60000000000002
   vertex -226.31400000000031 -556.61033689845021 609.60000000000002
   vertex -226.31400000000031 -556.61033689845021 634.99999999999989
  endloop
 endfacet
 facet normal 1.00000000000000 0.00000000000000 0.00000000000000
  outer loop
   vertex -226.31400000000031 -556.61033689845021 634.99999999999989
   vertex -226.31400000000031 -702.66033689845017 634.99999999999989
   vertex -226.31400000000031 -702.66033689845017 609.60000000000002
  endloop
 endfacet
 facet normal -0.00000000000000 -1.00000000000000 0.00000000000000
  outer loop
   vertex -226.31400000000031 -702.66033689845017 634.99999999999989
   vertex -556.51400000000024 -702.66033689845017 634.99999999999989
   vertex -556.51400000000024 -702.66033689845017 609.60000000000002
  endloop
 endfacet
 facet normal 0.00000000000000 -1.00000000000000 0.00000000000000
  outer loop
   vertex -556.51400000000024 -702.66033689845017 609.60000000000002
   vertex -226.31400000000031 -702.66033689845017 609.60000000000002
   vertex -226.31400000000031 -702.66033689845017 634.99999999999989
  endloop
 endfacet
 facet normal 0.00000000000000 1.00000000000000 0.00000000000000
  outer loop
   vertex -226.31400000000031 -556.61033689845021 609.60000000000002
   vertex -556.51400000000024 -556.61033689845021 609.60000000000002
   vertex -556.51400000000024 -556.61033689845021 634.99999999999989
  endloop
 endfacet
 facet normal -0.00000000000000 1.00000000000000 0.00000000000000
  outer loop
   vertex -556.51400000000024 -556.61033689845021 634.99999999999989
   vertex -226.31400000000031 -556.61033689845021 634.99999999999989
   vertex -226.31400000000031 -556.61033689845021 609.60000000000002
  endloop
 endfacet
 facet normal 0.00000000000000 0.00000000000000 1.00000000000000
  outer loop
   vertex -556.51400000000024 -556.61033689845021 634.99999999999989
   vertex -556.51400000000024 -702.66033689845017 634.99999999999989
   vertex -438.58542857142885 -598.77361680391959 634.99999999999989
  endloop
 endfacet
 facet normal 0.00000000000000 0.00000000000000 1.00000000000000
  outer loop
   vertex -556.51400000000024 -702.66033689845017 634.99999999999989
   vertex -226.31400000000031 -702.66033689845017 634.99999999999989
   vertex -344.24257142857175 -598.77361680391959 634.99999999999989
  endloop
 endfacet
 facet normal 0.00000000000000 0.00000000000000 1.00000000000000
  outer loop
   vertex -344.24257142857175 -598.77361680391959 634.99999999999989
   vertex -438.58542857142885 -598.77361680391959 634.99999999999989
   vertex -556.51400000000024 -702.66033689845017 634.99999999999989
  endloop
 endfacet
 facet normal 0.00000000000000 0.00000000000000 1.00000000000000
  outer loop
   vertex -226.31400000000031 -556.61033689845021 634.99999999999989
   vertex -344.24257142857175 -573.37361680391962 634.99999999999989
   vertex -344.24257142857175 -598.77361680391959 634.99999999999989
  endloop
 endfacet
 facet normal 0.00000000000000 0.00000000000000 1.00000000000000
  outer loop
   vertex -226.31400000000031 -556.61033689845021 634.99999999999989
   vertex -556.51400000000024 -556.61033689845021 634.99999999999989
   vertex -438.58542857142885 -573.37361680391962 634.99999999999989
  endloop
 endfacet
 facet normal -0.00000000000000 0.00000000000000 1.00000000000000
  outer loop
   vertex -344.24257142857175 -598.77361680391959 634.99999999999989
   vertex -226.31400000000031 -702.66033689845017 634.99999999999989
   vertex -226.31400000000031 -556.61033689845021 634.99999999999989
  endloop
 endfacet
 facet normal 0.00000000000000 -0.00000000000000 1.00000000000000
  outer loop
   vertex -438.58542857142885 -598.77361680391959 634.99999999999989
   vertex -438.58542857142885 -573.37361680391962 634.99999999999989
   vertex -556.51400000000024 -556.61033689845021 634.99999999999989
  endloop
 endfacet
 facet normal 0.00000000000000 0.00000000000000 1.00000000000000
  outer loop
   vertex -438.58542857142885 -573.37361680391962 634.99999999999989
   vertex -344.24257142857175 -573.37361680391962 634.99999999999989
   vertex -226.31400000000031 -556.61033689845021 634.99999999999989
  endloop
 endfacet
 facet normal -1.00000000000000 0.00000000000000 0.00000000000000
  outer loop
   vertex -438.58542857142885 -573.37361680391962 634.99999999999989
   vertex -438.58542857142885 -598.77361680391959 634.99999999999989
   vertex -438.58542857142885 -598.77361680391959 660.40000000000009
  endloop
 endfacet
 facet normal -1.00000000000000 0.00000000000000 0.00000000000000
  outer loop
   vertex -438.58542857142885 -598.77361680391959 660.40000000000009
   vertex -438.58542857142885 -573.37361680391962 660.40000000000009
   vertex -438.58542857142885 -573.37361680391962 634.99999999999989
  endloop
 endfacet
 facet normal 0.00000000000000 0.00000000000000 1.00000000000000
  outer loop
   vertex -438.58542857142885 -573.37361680391962 660.40000000000009
   vertex -438.58542857142885 -598.77361680391959 660.40000000000009
   vertex -344.24257142857175 -598.77361680391959 660.40000000000009
  endloop
 endfacet
 facet normal 0.00000000000000 -0.00000000000000 1.00000000000000
  outer loop
   vertex -344.24257142857175 -598.77361680391959 660.40000000000009
   vertex -344.24257142857175 -573.37361680391962 660.40000000000009
   vertex -438.58542857142885 -573.37361680391962 660.40000000000009
  endloop
 endfacet
 facet normal 1.00000000000000 0.00000000000000 0.00000000000000
  outer loop
   vertex -344.24257142857175 -573.37361680391962 660.40000000000009
   vertex -344.24257142857175 -598.77361680391959 660.40000000000009
   vertex -344.24257142857175 -598.77361680391959 634.99999999999989
  endloop
 endfacet
 facet normal 1.00000000000000 0.00000000000000 0.00000000000000
  outer loop
   vertex -344.24257142857175 -598.77361680391959 634.99999999999989
   vertex -344.24257142857175 -573.37361680391962 634.99999999999989
   vertex -344.24257142857175 -573.37361680391962 660.40000000000009
  endloop
 endfacet
 facet normal 0.00000000000000 1.00000000000000 0.00000000000000
  outer loop
   vertex -344.24257142857175 -573.37361680391962 634.99999999999989
   vertex -438.58542857142885 -573.37361680391962 634.99999999999989
   vertex -438.58542857142885 -573.37361680391962 660.40000000000009
  endloop
 endfacet
 facet normal -0.00000000000000 1.00000000000000 0.00000000000000
  outer loop
   vertex -438.58542857142885 -573.37361680391962 660.40000000000009
   vertex -344.24257142857175 -573.37361680391962 660.40000000000009
   vertex -344.24257142857175 -573.37361680391962 634.99999999999989
  endloop
 endfacet
 facet normal -0.00000000000000 -1.00000000000000 0.00000000000000
  outer loop
   vertex -344.24257142857175 -598.77361680391959 660.40000000000009
   vertex -438.58542857142885 -598.77361680391959 660.40000000000009
   vertex -438.58542857142885 -598.77361680391959 634.99999999999989
  endloop
 endfacet
 facet normal 0.00000000000000 -1.00000000000000 0.00000000000000
  outer loop
   vertex -438.58542857142885 -598.77361680391959 634.99999999999989
   vertex -344.24257142857175 -598.77361680391959 634.99999999999989
   vertex -344.24257142857175 -598.77361680391959 660.40000000000009
  endloop
 endfacet
 facet normal -1.00000000000000 0.00000000000000 0.00000000000000
  outer loop
   vertex -556.51400000000024 -550.26033689845019 634.99999999999989
   vertex -556.51400000000024 -404.21033689845012 634.99999999999989
   vertex -556.51400000000024 -404.21033689845012 609.60000000000002
  endloop
 endfacet
 facet normal -1.00000000000000 0.00000000000000 0.00000000000000
  outer loop
   vertex -556.51400000000024 -404.21033689845012 609.60000000000002
   vertex -556.51400000000024 -550.26033689845019 609.60000000000002
   vertex -556.51400000000024 -550.26033689845019 634.99999999999989
  endloop
 endfacet
 facet normal 0.00000000000000 0.00000000000000 -1.00000000000000
  outer loop
   vertex -556.51400000000024 -550.26033689845019 609.60000000000002
   vertex -556.51400000000024 -404.21033689845012 609.60000000000002
   vertex -226.31400000000031 -404.21033689845012 609.60000000000002
  endloop
 endfacet
 facet normal 0.00000000000000 -0.00000000000000 -1.00000000000000
  outer loop
   vertex -226.31400000000031 -404.21033689845012 609.60000000000002
   vertex -226.31400000000031 -550.26033689845019 609.60000000000002
   vertex -556.51400000000024 -550.26033689845019 609.60000000000002
  endloop
 endfacet
 facet normal 1.00000000000000 0.00000000000000 0.00000000000000
  outer loop
   vertex -226.31400000000031 -550.26033689845019 609.60000000000002
   vertex -226.31400000000031 -404.21033689845012 609.60000000000002
   vertex -226.31400000000031 -404.21033689845012 634.99999999999989
  endloop
 endfacet
 facet normal 1.00000000000000 0.00000000000000 0.00000000000000
  outer loop
   vertex -226.31400000000031 -404.21033689845012 634.99999999999989
   vertex -226.31400000000031 -550.26033689845019 634.99999999999989
   vertex -226.31400000000031 -550.26033689845019 609.60000000000002
  endloop
 endfacet
 facet normal -0.00000000000000 -1.00000000000000 0.00000000000000
  outer loop
   vertex -226.31400000000031 -550.26033689845019 634.99999999999989
   vertex -556.51400000000024 -550.26033689845019 634.99999999999989
   vertex -556.51400000000024 -550.26033689845019 609.60000000000002
  endloop
 endfacet
 facet normal 0.00000000000000 -1.00000000000000 0.00000000000000
  outer loop
   vertex -556.51400000000024 -550.26033689845019 609.60000000000002
   vertex -226.31400000000031 -550.26033689845019 609.60000000000002
   vertex -226.31400000000031 -550.26033689845019 634.99999999999989
  endloop
 endfacet
 facet normal 0.00000000000000 1.00000000000000 0.00000000000000
  outer loop
   vertex -226.31400000000031 -404.21033689845012 609.60000000000002
   vertex -556.51400000000024 -404.21033689845012 609.60000000000002
   vertex -556.51400000000024 -404.21033689845012 634.99999999999989
  endloop
 endfacet
 facet normal -0.00000000000000 1.00000000000000 0.00000000000000
  outer loop
   vertex -556.51400000000024 -404.21033689845012 634.99999999999989
   vertex -226.31400000000031 -404.21033689845012 634.99999999999989
   vertex -226.31400000000031 -404.21033689845012 609.60000000000002
  endloop
 endfacet
 facet normal 0.00000000000000 0.00000000000000 1.00000000000000
  outer loop
   vertex -556.51400000000024 -404.21033689845012 634.99999999999989
   vertex -556.51400000000024 -550.26033689845019 634.99999999999989
   vertex -438.58542857142885 -446.37361680391939 634.99999999999989
  endloop
 endfacet
 facet normal 0.00000000000000 0.00000000000000 1.00000000000000
  outer loop
   vertex -556.51400000000024 -550.26033689845019 634.99999999999989
   vertex -226.31400000000031 -550.26033689845019 634.99999999999989
   vertex -344.24257142857175 -446.37361680391939 634.99999999999989
  endloop
 endfacet
 facet normal 0.00000000000000 0.00000000000000 1.00000000000000
  outer loop
   vertex -344.24257142857175 -446.37361680391939 634.99999999999989
   vertex -438.58542857142885 -446.37361680391939 634.99999999999989
   vertex -556.51400000000024 -550.26033689845019 634.99999999999989
  endloop
 endfacet
 facet normal 0.00000000000000 0.00000000000000 1.00000000000000
  outer loop
   vertex -226.31400000000031 -404.21033689845012 634.99999999999989
   vertex -344.24257142857175 -420.97361680391936 634.99999999999989
   vertex -344.24257142857175 -446.37361680391939 634.99999999999989
  endloop
 endfacet
 facet normal 0.00000000000000 0.00000000000000 1.00000000000000
  outer loop
   vertex -226.31400000000031 -404.21033689845012 634.99999999999989
   vertex -556.51400000000024 -404.21033689845012 634.99999999999989
   vertex -438.58542857142885 -420.97361680391936 634.99999999999989
  endloop
 endfacet
 facet normal -0.00000000000000 0.00000000000000 1.00000000000000
  outer loop
   vertex -344.24257142857175 -446.37361680391939 634.99999999999989
   vertex -226.31400000000031 -550.26033689845019 634.99999999999989
   vertex -226.31400000000031 -404.21033689845012 634.99999999999989
  endloop
 endfacet
 facet normal 0.00000000000000 -0.00000000000000 1.00000000000000
  outer loop
   vertex -438.58542857142885 -446.37361680391939 634.99999999999989
   vertex -438.58542857142885 -420.97361680391936 634.99999999999989
   vertex -556.51400000000024 -404.21033689845012 634.99999999999989
  endloop
 endfacet
 facet normal 0.00000000000000 0.00000000000000 1.00000000000000
  outer loop
   vertex -438.58542857142885 -420.97361680391936 634.99999999999989
   vertex -344.24257142857175 -420.97361680391936 634.99999999999989
   vertex -226.31400000000031 -404.21033689845012 634.99999999999989
  endloop
 endfacet
 facet normal -1.00000000000000 0.00000000000000 0.00000000000000
  outer loop
   vertex -438.58542857142885 -420.97361680391936 634.99999999999989
   vertex -438.58542857142885 -446.37361680391939 634.99999999999989
   vertex -438.58542857142885 -446.37361680391939 660.40000000000009
  endloop
 endfacet
 facet normal -1.00000000000000 0.00000000000000 0.00000000000000
  outer loop
   vertex -438.58542857142885 -446.37361680391939 660.40000000000009
   vertex -438.58542857142885 -420.97361680391936 660.40000000000009
   vertex -438.58542857142885 -420.97361680391936 634.99999999999989
  endloop
 endfacet
 facet normal 0.00000000000000 0.00000000000000 1.00000000000000
  outer loop
   vertex -438.58542857142885 -420.97361680391936 660.40000000000009
   vertex -438.58542857142885 -446.37361680391939 660.40000000000009
   vertex -344.24257142857175 -446.37361680391939 660.40000000000009
  endloop
 endfacet
 facet normal 0.00000000000000 -0.00000000000000 1.00000000000000
  outer loop
   vertex -344.24257142857175 -446.37361680391939 660.40000000000009
   vertex -344.24257142857175 -420.97361680391936 660.40000000000009
   vertex -438.58542857142885 -420.97361680391936 660.40000000000009
  endloop
 endfacet
 facet normal 1.00000000000000 0.00000000000000 0.00000000000000
  outer loop
   vertex -344.24257142857175 -420.97361680391936 660.40000000000009
   vertex -344.24257142857175 -446.37361680391939 660.40000000000009
   vertex -344.24257142857175 -446.37361680391939 634.99999999999989
  endloop
 endfacet
 facet normal 1.00000000000000 0.00000000000000 0.00000000000000
  outer loop
   vertex -344.24257142857175 -446.37361680391939 634.99999999999989
   vertex -344.24257142857175 -420.97361680391936 634.99999999999989
   vertex -344.24257142857175 -420.97361680391936 660.40000000000009
  endloop
 endfacet
 facet normal 0.00000000000000 1.00000000000000 0.00000000000000
  outer loop
   vertex -344.24257142857175 -420.97361680391936 634.99999999999989
   vertex -438.58542857142885 -420.97361680391936 634.99999999999989
   vertex -438.58542857142885 -420.97361680391936 660.40000000000009
  endloop
 endfacet
 facet normal -0.00000000000000 1.00000000000000 0.00000000000000
  outer loop
   vertex -438.58542857142885 -420.97361680391936 660.40000000000009
   vertex -344.24257142857175 -420.97361680391936 660.40000000000009
   vertex -344.24257142857175 -420.97361680391936 634.99999999999989
  endloop
 endfacet
 facet normal -0.00000000000000 -1.00000000000000 0.00000000000000
  outer loop
   vertex -344.24257142857175 -446.37361680391939 660.40000000000009
   vertex -438.58542857142885 -446.37361680391939 660.40000000000009
   vertex -438.58542857142885 -446.37361680391939 634.99999999999989
  endloop
 endfacet
 facet normal 0.00000000000000 -1.00000000000000 0.00000000000000
  outer loop
   vertex -438.58542857142885 -446.37361680391939 634.99999999999989
   vertex -344.24257142857175 -446.37361680391939 634.99999999999989
   vertex -344.24257142857175 -446.37361680391939 660.40000000000009
  endloop
 endfacet
 facet normal -1.00000000000000 0.00000000000000 0.00000000000000
  outer loop
   vertex 129.28599999999960 186.43600000000032 1130.29999999999973
   vertex 129.28599999999955 186.43600000000032 716.28000000000031
   vertex 129.28599999999955 -131.06399999999968 716.28000000000031
  endloop
 endfacet
 facet normal -1.00000000000000 0.00000000000000 0.00000000000000
  outer loop
   vertex 129.28599999999955 -131.06399999999968 716.28000000000031
   vertex 129.28599999999960 -131.06399999999968 1130.29999999999973
   vertex 129.28599999999960 186.43600000000032 1130.29999999999973
  endloop
 endfacet
 facet normal 0.00000000000000 0.00000000000000 1.00000000000000
  outer loop
   vertex 129.28599999999960 186.43600000000032 1130.29999999999973
   vertex 129.28599999999960 -131.06399999999968 1130.29999999999973
   vertex 484.88599999999957 -131.06399999999954 1130.29999999999973
  endloop
 endfacet
 facet normal 0.00000000000000 -0.00000000000000 1.00000000000000
  outer loop
   vertex 484.88599999999957 -131.06399999999954 1130.29999999999973
   vertex 484.88599999999957 186.43600000000032 1130.29999999999973
   vertex 129.28599999999960 186.43600000000032 1130.29999999999973
  endloop
 endfacet
 facet normal 0.00000000000000 -1.00000000000000 -0.00000000000000
  outer loop
   vertex 484.88599999999957 -131.06399999999954 1130.29999999999973
   vertex 129.28599999999960 -131.06399999999968 1130.29999999999973
   vertex 129.28599999999955 -131.06399999999968 716.28000000000031
  endloop
 endfacet
 facet normal 0.00000000000000 -1.00000000000000 0.00000000000000
  outer loop
   vertex 129.28599999999955 -131.06399999999968 716.28000000000031
   vertex 484.88599999999957 -131.06399999999954 662.30499999999995
   vertex 484.88599999999957 -131.06399999999954 1130.29999999999973
  endloop
 endfacet
 facet normal 0.00000000000000 -1.00000000000000 -0.00000000000000
  outer loop
   vertex 129.28599999999955 -131.06399999999968 716.28000000000031
   vertex 129.28599999999955 -131.06399999999954 662.30499999999995
   vertex 484.88599999999957 -131.06399999999954 662.30499999999995
  endloop
 endfacet
 facet normal 0.00000000000000 0.00000000000000 1.00000000000000
  outer loop
   vertex 484.88599999999957 -131.06399999999954 662.30499999999995
   vertex 129.28599999999955 -131.06399999999954 662.30499999999995
   vertex 129.28599999999960 -162.81399999999951 662.30499999999995
  endloop
 endfacet
 facet normal -0.00000000000000 0.00000000000000 1.00000000000000
  outer loop
   vertex 129.28599999999960 -162.81399999999951 662.30499999999995
   vertex 484.88599999999957 -162.81399999999965 662.30499999999995
   vertex 484.88599999999957 -131.06399999999954 662.30499999999995
  endloop
 endfacet
 facet normal 1.00000000000000 0.00000000000000 0.00000000000000
  outer loop
   vertex 129.28599999999960 -162.81399999999951 662.30499999999995
   vertex 129.28599999999955 -131.06399999999954 662.30499999999995
   vertex 129.28599999999955 -131.06399999999968 716.28000000000031
  endloop
 endfacet
 facet normal 1.00000000000000 0.00000000000000 0.00000000000000
  outer loop
   vertex 129.28599999999955 -131.06399999999968 716.28000000000031
   vertex 129.28599999999960 -162.81399999999951 716.28000000000031
   vertex 129.28599999999960 -162.81399999999951 662.30499999999995
  endloop
 endfacet
 facet normal 0.00000000000000 0.00000000000000 1.00000000000000
  outer loop
   vertex -213.61400000000015 -131.06399999999968 716.28000000000031
   vertex 129.28599999999955 -131.06399999999968 716.28000000000031
   vertex 129.28599999999955 186.43600000000032 716.28000000000031
  endloop
 endfacet
 facet normal 0.00000000000000 0.00000000000000 1.00000000000000
  outer loop
   vertex -213.61400000000015 -162.81399999999965 716.28000000000031
   vertex 129.28599999999960 -162.81399999999951 716.28000000000031
   vertex 129.28599999999955 -131.06399999999968 716.28000000000031
  endloop
 endfacet
 facet normal 0.00000000000000 0.00000000000000 1.00000000000000
  outer loop
   vertex 129.28599999999955 -131.06399999999968 716.28000000000031
   vertex -213.61400000000015 -131.06399999999968 716.28000000000031
   vertex -213.61400000000015 -162.81399999999965 716.28000000000031
  endloop
 endfacet
 facet normal 0.00000000000000 0.00000000000000 1.00000000000000
  outer loop
   vertex 129.28599999999955 186.43600000000032 716.28000000000031
   vertex -213.61400000000015 186.43600000000046 716.28000000000031
   vertex -213.61400000000015 -131.06399999999968 716.28000000000031
  endloop
 endfacet
 facet normal 1.00000000000000 -0.00000000000000 0.00000000000000
  outer loop
   vertex -213.61400000000015 -131.06399999999968 716.28000000000031
   vertex -213.61400000000015 186.43600000000046 716.28000000000031
   vertex -213.61400000000035 186.43600000000032 1130.29999999999995
  endloop
 endfacet
 facet normal 1.00000000000000 0.00000000000000 0.00000000000000
  outer loop
   vertex -213.61400000000035 186.43600000000032 1130.29999999999995
   vertex -213.61400000000032 -131.06399999999954 1130.29999999999995
   vertex -213.61400000000015 -131.06399999999968 716.28000000000031
  endloop
 endfacet
 facet normal 0.00000000000000 0.00000000000000 1.00000000000000
  outer loop
   vertex -569.21400000000040 186.43600000000032 1130.29999999999995
   vertex -569.21400000000017 -131.06399999999968 1130.29999999999995
   vertex -213.61400000000032 -131.06399999999954 1130.29999999999995
  endloop
 endfacet
 facet normal 0.00000000000000 0.00000000000000 1.00000000000000
  outer loop
   vertex -213.61400000000032 -131.06399999999954 1130.29999999999995
   vertex -213.61400000000035 186.43600000000032 1130.29999999999995
   vertex -569.21400000000040 186.43600000000032 1130.29999999999995
  endloop
 endfacet
 facet normal -0.00000000000000 -1.00000000000000 -0.00000000000000
  outer loop
   vertex -569.21400000000017 -131.06399999999968 1130.29999999999995
   vertex -569.21400000000017 -131.06399999999954 662.30499999999995
   vertex -213.61400000000015 -131.06399999999968 716.28000000000031
  endloop
 endfacet
 facet normal 0.00000000000000 -1.00000000000000 -0.00000000000000
  outer loop
   vertex -569.21400000000017 -131.06399999999954 662.30499999999995
   vertex -213.61400000000032 -131.06399999999954 662.30499999999995
   vertex -213.61400000000015 -131.06399999999968 716.28000000000031
  endloop
 endfacet
 facet normal 0.00000000000000 -1.00000000000000 0.00000000000000
  outer loop
   vertex -213.61400000000015 -131.06399999999968 716.28000000000031
   vertex -213.61400000000032 -131.06399999999954 1130.29999999999995
   vertex -569.21400000000017 -131.06399999999968 1130.29999999999995
  endloop
 endfacet
 facet normal -0.00000000000000 0.00000000000000 1.00000000000000
  outer loop
   vertex -569.21400000000040 -162.81399999999951 662.30499999999995
   vertex -213.61400000000015 -162.81399999999965 662.30499999999995
   vertex -213.61400000000032 -131.06399999999954 662.30499999999995
  endloop
 endfacet
 facet normal 0.00000000000000 0.00000000000000 1.00000000000000
  outer loop
   vertex -213.61400000000032 -131.06399999999954 662.30499999999995
   vertex -569.21400000000017 -131.06399999999954 662.30499999999995
   vertex -569.21400000000040 -162.81399999999951 662.30499999999995
  endloop
 endfacet
 facet normal -1.00000000000000 0.00000000000000 0.00000000000000
  outer loop
   vertex -213.61400000000015 -162.81399999999965 662.30499999999995
   vertex -213.61400000000015 -162.81399999999965 716.28000000000031
   vertex -213.61400000000015 -131.06399999999968 716.28000000000031
  endloop
 endfacet
 facet normal -1.00000000000000 -0.00000000000001 0.00000000000000
  outer loop
   vertex -213.61400000000015 -131.06399999999968 716.28000000000031
   vertex -213.61400000000032 -131.06399999999954 662.30499999999995
   vertex -213.61400000000015 -162.81399999999965 662.30499999999995
  endloop
 endfacet
 facet normal 1.00000000000000 0.00000000000000 -0.00000000000000
  outer loop
   vertex -569.21400000000040 186.43600000000032 1130.29999999999995
   vertex -569.21400000000040 186.43600000000032 1262.38000000000011
   vertex -569.21400000000040 -131.06399999999968 1262.37999999999988
  endloop
 endfacet
 facet normal 1.00000000000000 -0.00000000000001 -0.00000000000000
  outer loop
   vertex -569.21400000000040 -162.81399999999951 662.30499999999995
   vertex -569.21400000000017 -131.06399999999954 662.30499999999995
   vertex -569.21400000000017 -131.06399999999968 1130.29999999999995
  endloop
 endfacet
 facet normal 1.00000000000000 0.00000000000000 0.00000000000000
  outer loop
   vertex -569.21400000000040 -162.81399999999951 1338.57999999999993
   vertex -569.21400000000040 -162.81399999999951 662.30499999999995
   vertex -569.21400000000040 -131.06399999999968 1262.37999999999988
  endloop
 endfacet
 facet normal 1.00000000000000 -0.00000000000003 0.00000000000000
  outer loop
   vertex -569.21400000000017 -131.06399999999968 1130.29999999999995
   vertex -569.21400000000040 -131.06399999999968 1262.37999999999988
   vertex -569.21400000000040 -162.81399999999951 662.30499999999995
  endloop
 endfacet
 facet normal 1.00000000000000 0.00000000000000 0.00000000000000
  outer loop
   vertex -569.21400000000040 -131.06399999999968 1262.37999999999988
   vertex -569.21400000000017 -131.06399999999968 1130.29999999999995
   vertex -569.21400000000040 186.43600000000032 1130.29999999999995
  endloop
 endfacet
 facet normal 1.00000000000000 0.00000000000000 -0.00000000000000
  outer loop
   vertex -569.21400000000040 -131.06399999999968 1262.37999999999988
   vertex -569.21400000000040 -131.06399999999968 1338.57999999999993
   vertex -569.21400000000040 -162.81399999999951 1338.57999999999993
  endloop
 endfacet
 facet normal 0.00000000000001 0.00000000000000 1.00000000000000
  outer loop
   vertex -600.96400000000028 186.43600000000032 1262.38000000000011
   vertex -600.96400000000028 -131.06399999999968 1262.38000000000011
   vertex -569.21400000000040 -131.06399999999968 1262.37999999999988
  endloop
 endfacet
 facet normal 0.00000000000000 -0.00000000000000 1.00000000000000
  outer loop
   vertex -569.21400000000040 -131.06399999999968 1262.37999999999988
   vertex -569.21400000000040 186.43600000000032 1262.38000000000011
   vertex -600.96400000000028 186.43600000000032 1262.38000000000011
  endloop
 endfacet
 facet normal 0.00000000000000 1.00000000000000 0.00000000000000
  outer loop
   vertex -569.21400000000040 -131.06399999999968 1338.57999999999993
   vertex -569.21400000000040 -131.06399999999968 1262.37999999999988
   vertex -600.96400000000028 -131.06399999999968 1262.38000000000011
  endloop
 endfacet
 facet normal 0.00000000000000 1.00000000000000 0.00000000000000
  outer loop
   vertex -600.96400000000028 -131.06399999999968 1262.38000000000011
   vertex -600.96400000000028 -131.06399999999968 1338.57999999999993
   vertex -569.21400000000040 -131.06399999999968 1338.57999999999993
  endloop
 endfacet
 facet normal 0.00000000000000 0.00000000000000 1.00000000000000
  outer loop
   vertex -600.96400000000028 -162.81399999999951 1338.57999999999993
   vertex -569.21400000000040 -162.81399999999951 1338.57999999999993
   vertex -569.21400000000040 -131.06399999999968 1338.57999999999993
  endloop
 endfacet
 facet normal 0.00000000000000 0.00000000000000 1.00000000000000
  outer loop
   vertex -569.21400000000040 -131.06399999999968 1338.57999999999993
   vertex -600.96400000000028 -131.06399999999968 1338.57999999999993
   vertex -600.96400000000028 -162.81399999999951 1338.57999999999993
  endloop
 endfacet
 facet normal -1.00000000000000 0.00000000000000 0.00000000000000
  outer loop
   vertex 484.88599999999957 -162.81399999999965 662.30499999999995
   vertex 484.88599999999957 -131.06399999999968 1262.38000000000011
   vertex 484.88599999999957 -131.06399999999954 1130.29999999999973
  endloop
 endfacet
 facet normal -1.00000000000000 0.00000000000000 -0.00000000000000
  outer loop
   vertex 484.88599999999957 186.43600000000032 1262.38000000000011
   vertex 484.88599999999957 186.43600000000032 1130.29999999999973
   vertex 484.88599999999957 -131.06399999999954 1130.29999999999973
  endloop
 endfacet
 facet normal -1.00000000000000 0.00000000000000 0.00000000000000
  outer loop
   vertex 484.88599999999957 -131.06399999999954 1130.29999999999973
   vertex 484.88599999999957 -131.06399999999968 1262.38000000000011
   vertex 484.88599999999957 186.43600000000032 1262.38000000000011
  endloop
 endfacet
 facet normal -1.00000000000000 0.00000000000000 0.00000000000000
  outer loop
   vertex 484.88599999999957 -162.81399999999951 1338.57999999999993
   vertex 484.88599999999957 -131.06399999999968 1338.57999999999993
   vertex 484.88599999999957 -131.06399999999968 1262.38000000000011
  endloop
 endfacet
 facet normal -1.00000000000000 -0.00000000000000 0.00000000000000
  outer loop
   vertex 484.88599999999957 -131.06399999999968 1262.38000000000011
   vertex 484.88599999999957 -162.81399999999965 662.30499999999995
   vertex 484.88599999999957 -162.81399999999951 1338.57999999999993
  endloop
 endfacet
 facet normal -1.00000000000000 0.00000000000000 -0.00000000000000
  outer loop
   vertex 484.88599999999957 -131.06399999999954 1130.29999999999973
   vertex 484.88599999999957 -131.06399999999954 662.30499999999995
   vertex 484.88599999999957 -162.81399999999965 662.30499999999995
  endloop
 endfacet
 facet normal 0.00000000000001 0.00000000000000 1.00000000000000
  outer loop
   vertex 484.88599999999957 186.43600000000032 1262.38000000000011
   vertex 484.88599999999957 -131.06399999999968 1262.38000000000011
   vertex 516.63599999999951 -131.06399999999968 1262.37999999999988
  endloop
 endfacet
 facet normal 0.00000000000000 -0.00000000000000 1.00000000000000
  outer loop
   vertex 516.63599999999951 -131.06399999999968 1262.37999999999988
   vertex 516.63599999999951 186.43600000000032 1262.38000000000011
   vertex 484.88599999999957 186.43600000000032 1262.38000000000011
  endloop
 endfacet
 facet normal 0.00000000000000 1.00000000000000 0.00000000000000
  outer loop
   vertex 516.63599999999951 -131.06399999999968 1338.57999999999993
   vertex 516.63599999999951 -131.06399999999968 1262.37999999999988
   vertex 484.88599999999957 -131.06399999999968 1262.38000000000011
  endloop
 endfacet
 facet normal 0.00000000000000 1.00000000000000 0.00000000000000
  outer loop
   vertex 484.88599999999957 -131.06399999999968 1262.38000000000011
   vertex 484.88599999999957 -131.06399999999968 1338.57999999999993
   vertex 516.63599999999951 -131.06399999999968 1338.57999999999993
  endloop
 endfacet
 facet normal 0.00000000000000 0.00000000000000 1.00000000000000
  outer loop
   vertex 484.88599999999957 -162.81399999999951 1338.57999999999993
   vertex 516.63599999999951 -162.81399999999951 1338.57999999999993
   vertex 516.63599999999951 -131.06399999999968 1338.57999999999993
  endloop
 endfacet
 facet normal 0.00000000000000 0.00000000000000 1.00000000000000
  outer loop
   vertex 516.63599999999951 -131.06399999999968 1338.57999999999993
   vertex 484.88599999999957 -131.06399999999968 1338.57999999999993
   vertex 484.88599999999957 -162.81399999999951 1338.57999999999993
  endloop
 endfacet
 facet normal -1.00000000000000 0.00000000000000 -0.00000000000000
  outer loop
   vertex -600.96400000000028 218.18600000000043 1338.57999999999993
   vertex -600.96400000000028 218.18600000000043 647.70000000000027
   vertex -600.96400000000028 186.43600000000032 1262.38000000000011
  endloop
 endfacet
 facet normal -1.00000000000000 0.00000000000000 0.00000000000000
  outer loop
   vertex -600.96400000000028 -162.81399999999951 647.69999999999993
   vertex -600.96400000000028 -131.06399999999968 1262.38000000000011
   vertex -600.96400000000028 186.43600000000032 1262.38000000000011
  endloop
 endfacet
 facet normal -1.00000000000000 0.00000000000000 -0.00000000000000
  outer loop
   vertex -600.96400000000028 186.43600000000032 1262.38000000000011
   vertex -600.96400000000028 218.18600000000043 647.70000000000027
   vertex -600.96400000000028 -162.81399999999951 647.69999999999993
  endloop
 endfacet
 facet normal -1.00000000000000 0.00000000000000 0.00000000000000
  outer loop
   vertex -600.96400000000028 -162.81399999999951 1338.57999999999993
   vertex -600.96400000000028 -131.06399999999968 1338.57999999999993
   vertex -600.96400000000028 -131.06399999999968 1262.38000000000011
  endloop
 endfacet
 facet normal -1.00000000000000 -0.00000000000000 0.00000000000000
  outer loop
   vertex -600.96400000000028 -131.06399999999968 1262.38000000000011
   vertex -600.96400000000028 -162.81399999999951 647.69999999999993
   vertex -600.96400000000028 -162.81399999999951 1338.57999999999993
  endloop
 endfacet
 facet normal -1.00000000000000 0.00000000000000 0.00000000000000
  outer loop
   vertex -600.96400000000028 186.43600000000032 1262.38000000000011
   vertex -600.96400000000028 186.43600000000032 1338.57999999999993
   vertex -600.96400000000028 218.18600000000043 1338.57999999999993
  endloop
 endfacet
 facet normal 1.00000000000000 0.00000000000000 0.00000000000000
  outer loop
   vertex 516.63599999999951 218.18600000000043 647.70000000000027
   vertex 516.63599999999951 186.43600000000032 1262.38000000000011
   vertex 516.63599999999951 -131.06399999999968 1262.37999999999988
  endloop
 endfacet
 facet normal 1.00000000000000 0.00000000000000 0.00000000000000
  outer loop
   vertex 516.63599999999951 218.18600000000043 1338.57999999999993
   vertex 516.63599999999951 186.43600000000032 1338.57999999999993
   vertex 516.63599999999951 186.43600000000032 1262.38000000000011
  endloop
 endfacet
 facet normal 1.00000000000000 0.00000000000000 0.00000000000000
  outer loop
   vertex 516.63599999999951 -162.81399999999951 1338.57999999999993
   vertex 516.63599999999951 -162.81399999999951 647.69999999999993
   vertex 516.63599999999951 -131.06399999999968 1262.37999999999988
  endloop
 endfacet
 facet normal 1.00000000000000 -0.00000000000000 0.00000000000000
  outer loop
   vertex 516.63599999999951 186.43600000000032 1262.38000000000011
   vertex 516.63599999999951 218.18600000000043 647.70000000000027
   vertex 516.63599999999951 218.18600000000043 1338.57999999999993
  endloop
 endfacet
 facet normal 1.00000000000000 0.00000000000000 0.00000000000000
  outer loop
   vertex 516.63599999999951 -131.06399999999968 1262.37999999999988
   vertex 516.63599999999951 -162.81399999999951 647.69999999999993
   vertex 516.63599999999951 218.18600000000043 647.70000000000027
  endloop
 endfacet
 facet normal 1.00000000000000 0.00000000000000 -0.00000000000000
  outer loop
   vertex 516.63599999999951 -131.06399999999968 1262.37999999999988
   vertex 516.63599999999951 -131.06399999999968 1338.57999999999993
   vertex 516.63599999999951 -162.81399999999951 1338.57999999999993
  endloop
 endfacet
 facet normal 0.00000000000000 0.00000000000000 1.00000000000000
  outer loop
   vertex 484.88599999999957 186.43600000000032 1338.57999999999993
   vertex 516.63599999999951 186.43600000000032 1338.57999999999993
   vertex 516.63599999999951 218.18600000000043 1338.57999999999993
  endloop
 endfacet
 facet normal 0.00000000000000 0.00000000000000 1.00000000000000
  outer loop
   vertex 516.63599999999951 218.18600000000043 1338.57999999999993
   vertex 484.88599999999957 218.18600000000043 1338.57999999999993
   vertex 484.88599999999957 186.43600000000032 1338.57999999999993
  endloop
 endfacet
 facet normal -1.00000000000000 0.00000000000000 0.00000000000000
  outer loop
   vertex 484.88599999999957 186.43600000000032 1338.57999999999993
   vertex 484.88599999999957 218.18600000000043 1338.57999999999993
   vertex 484.88599999999957 218.18600000000043 1263.10817354843039
  endloop
 endfacet
 facet normal -1.00000000000000 0.00000000000000 0.00000000000000
  outer loop
   vertex 484.88599999999957 218.18600000000043 1263.10817354843039
   vertex 484.88599999999957 186.43600000000032 1263.10817354843039
   vertex 484.88599999999957 186.43600000000032 1338.57999999999993
  endloop
 endfacet
 facet normal 0.00000000000000 -1.00000000000000 0.00000000000000
  outer loop
   vertex -213.61400000000035 186.43600000000032 1130.29999999999995
   vertex -569.21400000000040 186.43600000000032 1263.10817354843039
   vertex -569.21400000000040 186.43600000000032 1262.38000000000011
  endloop
 endfacet
 facet normal -0.00000000000000 -1.00000000000000 -0.00000000000000
  outer loop
   vertex 484.88599999999957 186.43600000000032 1263.10817354843039
   vertex -569.21400000000040 186.43600000000032 1263.10817354843039
   vertex 484.88599999999957 186.43600000000032 1262.38000000000011
  endloop
 endfacet
 facet normal -0.00000000000000 -1.00000000000000 0.00000000000000
  outer loop
   vertex 516.63599999999951 186.43600000000032 1338.57999999999993
   vertex 484.88599999999957 186.43600000000032 1338.57999999999993
   vertex 484.88599999999957 186.43600000000032 1263.10817354843039
  endloop
 endfacet
 facet normal -0.00000000000000 -1.00000000000000 -0.00000000000000
  outer loop
   vertex 129.28599999999960 186.43600000000032 1130.29999999999973
   vertex -213.61400000000035 186.43600000000032 1130.29999999999995
   vertex -213.61400000000015 186.43600000000046 716.28000000000031
  endloop
 endfacet
 facet normal 0.00000000000000 -1.00000000000000 0.00000000000000
  outer loop
   vertex -569.21400000000040 186.43600000000032 1262.38000000000011
   vertex -569.21400000000040 186.43600000000032 1130.29999999999995
   vertex -213.61400000000035 186.43600000000032 1130.29999999999995
  endloop
 endfacet
 facet normal 0.00000000000000 -1.00000000000000 0.00000000000000
  outer loop
   vertex -600.96400000000028 186.43600000000032 1338.57999999999993
   vertex -600.96400000000028 186.43600000000032 1262.38000000000011
   vertex -569.21400000000040 186.43600000000032 1263.10817354843039
  endloop
 endfacet
 facet normal 0.00000000000000 -1.00000000000000 0.00000000000000
  outer loop
   vertex 484.88599999999957 186.43600000000032 1263.10817354843039
   vertex 516.63599999999951 186.43600000000032 1262.38000000000011
   vertex 516.63599999999951 186.43600000000032 1338.57999999999993
  endloop
 endfacet
 facet normal -0.00000000000000 -1.00000000000000 0.00000000000000
  outer loop
   vertex 484.88599999999957 186.43600000000032 1262.38000000000011
   vertex -569.21400000000040 186.43600000000032 1263.10817354843039
   vertex 129.28599999999960 186.43600000000032 1130.29999999999973
  endloop
 endfacet
 facet normal 0.00000000000000 -1.00000000000000 0.00000000000000
  outer loop
   vertex -213.61400000000035 186.43600000000032 1130.29999999999995
   vertex 129.28599999999960 186.43600000000032 1130.29999999999973
   vertex -569.21400000000040 186.43600000000032 1263.10817354843039
  endloop
 endfacet
 facet normal 0.00000000000000 -1.00000000000000 0.00000000000000
  outer loop
   vertex -600.96400000000028 186.43600000000032 1262.38000000000011
   vertex -569.21400000000040 186.43600000000032 1262.38000000000011
   vertex -569.21400000000040 186.43600000000032 1263.10817354843039
  endloop
 endfacet
 facet normal 0.00000000000000 -1.00000000000000 0.00000000000000
  outer loop
   vertex 129.28599999999960 186.43600000000032 1130.29999999999973
   vertex 484.88599999999957 186.43600000000032 1130.29999999999973
   vertex 484.88599999999957 186.43600000000032 1262.38000000000011
  endloop
 endfacet
 facet normal 0.00000000000000 -1.00000000000000 0.00000000000000
  outer loop
   vertex -569.21400000000040 186.43600000000032 1263.10817354843039
   vertex -569.21400000000040 186.43600000000032 1338.57999999999993
   vertex -600.96400000000028 186.43600000000032 1338.57999999999993
  endloop
 endfacet
 facet normal -0.00000000000000 -1.00000000000000 0.00000000000000
  outer loop
   vertex -213.61400000000015 186.43600000000046 716.28000000000031
   vertex 129.28599999999955 186.43600000000032 716.28000000000031
   vertex 129.28599999999960 186.43600000000032 1130.29999999999973
  endloop
 endfacet
 facet normal 0.00000000000000 -1.00000000000000 0.00000000000000
  outer loop
   vertex 484.88599999999957 186.43600000000032 1262.38000000000011
   vertex 516.63599999999951 186.43600000000032 1262.38000000000011
   vertex 484.88599999999957 186.43600000000032 1263.10817354843039
  endloop
 endfacet
 facet normal 0.00000000000000 1.00000000000000 0.00000000000000
  outer loop
   vertex 516.63599999999951 218.18600000000043 1338.57999999999993
   vertex 516.63599999999951 218.18600000000043 647.70000000000027
   vertex 484.88599999999957 218.18600000000043 1263.10817354843039
  endloop
 endfacet
 facet normal 0.00000000000000 1.00000000000000 0.00000000000000
  outer loop
   vertex 516.63599999999951 218.18600000000043 647.70000000000027
   vertex -600.96400000000028 218.18600000000043 647.70000000000027
   vertex -569.21400000000040 218.18600000000043 1263.10817354843039
  endloop
 endfacet
 facet normal -0.00000000000000 1.00000000000000 0.00000000000000
  outer loop
   vertex -569.21400000000040 218.18600000000043 1263.10817354843039
   vertex 484.88599999999957 218.18600000000043 1263.10817354843039
   vertex 516.63599999999951 218.18600000000043 647.70000000000027
  endloop
 endfacet
 facet normal -0.00000000000000 1.00000000000000 0.00000000000000
  outer loop
   vertex -600.96400000000028 218.18600000000043 1338.57999999999993
   vertex -569.21400000000040 218.18600000000043 1338.57999999999993
   vertex -569.21400000000040 218.18600000000043 1263.10817354843039
  endloop
 endfacet
 facet normal 0.00000000000000 1.00000000000000 0.00000000000000
  outer loop
   vertex -569.21400000000040 218.18600000000043 1263.10817354843039
   vertex -600.96400000000028 218.18600000000043 647.70000000000027
   vertex -600.96400000000028 218.18600000000043 1338.57999999999993
  endloop
 endfacet
 facet normal 0.00000000000000 1.00000000000000 0.00000000000000
  outer loop
   vertex 484.88599999999957 218.18600000000043 1263.10817354843039
   vertex 484.88599999999957 218.18600000000043 1338.57999999999993
   vertex 516.63599999999951 218.18600000000043 1338.57999999999993
  endloop
 endfacet
 facet normal 0.00000000000000 0.00000000000000 1.00000000000000
  outer loop
   vertex -569.21400000000040 186.43600000000032 1263.10817354843039
   vertex 484.88599999999957 186.43600000000032 1263.10817354843039
   vertex 484.88599999999957 218.18600000000043 1263.10817354843039
  endloop
 endfacet
 facet normal 0.00000000000000 0.00000000000000 1.00000000000000
  outer loop
   vertex 484.88599999999957 218.18600000000043 1263.10817354843039
   vertex -569.21400000000040 218.18600000000043 1263.10817354843039
   vertex -569.21400000000040 186.43600000000032 1263.10817354843039
  endloop
 endfacet
 facet normal 1.00000000000000 0.00000000000000 0.00000000000000
  outer loop
   vertex -569.21400000000040 218.18600000000043 1338.57999999999993
   vertex -569.21400000000040 186.43600000000032 1338.57999999999993
   vertex -569.21400000000040 186.43600000000032 1263.10817354843039
  endloop
 endfacet
 facet normal 1.00000000000000 0.00000000000000 0.00000000000000
  outer loop
   vertex -569.21400000000040 186.43600000000032 1263.10817354843039
   vertex -569.21400000000040 218.18600000000043 1263.10817354843039
   vertex -569.21400000000040 218.18600000000043 1338.57999999999993
  endloop
 endfacet
 facet normal 0.00000000000000 0.00000000000000 1.00000000000000
  outer loop
   vertex -600.96400000000028 186.43600000000032 1338.57999999999993
   vertex -569.21400000000040 186.43600000000032 1338.57999999999993
   vertex -569.21400000000040 218.18600000000043 1338.57999999999993
  endloop
 endfacet
 facet normal 0.00000000000000 0.00000000000000 1.00000000000000
  outer loop
   vertex -569.21400000000040 218.18600000000043 1338.57999999999993
   vertex -600.96400000000028 218.18600000000043 1338.57999999999993
   vertex -600.96400000000028 186.43600000000032 1338.57999999999993
  endloop
 endfacet
 facet normal 0.00000000000000 -1.00000000000000 0.00000000000000
  outer loop
   vertex -651.76400000000046 -162.81399999999951 609.59999999999991
   vertex -569.21400000000040 -162.81399999999951 662.30499999999995
   vertex -600.96400000000028 -162.81399999999951 647.69999999999993
  endloop
 endfacet
 facet normal 0.00000000000000 -1.00000000000000 0.00000000000000
  outer loop
   vertex -600.96400000000028 -162.81399999999951 1338.57999999999993
   vertex -600.96400000000028 -162.81399999999951 647.69999999999993
   vertex -569.21400000000040 -162.81399999999951 662.30499999999995
  endloop
 endfacet
 facet normal 0.00000000000000 -1.00000000000000 0.00000000000000
  outer loop
   vertex -569.21400000000040 -162.81399999999951 662.30499999999995
   vertex -569.21400000000040 -162.81399999999951 1338.57999999999993
   vertex -600.96400000000028 -162.81399999999951 1338.57999999999993
  endloop
 endfacet
 facet normal 0.00000000000000 -1.00000000000000 -0.00000000000001
  outer loop
   vertex -651.76400000000046 -162.81399999999951 609.59999999999991
   vertex 129.28599999999960 -162.81399999999951 662.30499999999995
   vertex -213.61400000000015 -162.81399999999965 662.30499999999995
  endloop
 endfacet
 facet normal -0.00000000000000 -1.00000000000000 -0.00000000000001
  outer loop
   vertex 516.63599999999951 -162.81399999999951 647.69999999999993
   vertex 484.88599999999957 -162.81399999999965 662.30499999999995
   vertex 129.28599999999960 -162.81399999999951 662.30499999999995
  endloop
 endfacet
 facet normal 0.00000000000000 -1.00000000000000 0.00000000000000
  outer loop
   vertex 516.63599999999951 -162.81399999999951 1338.57999999999993
   vertex 484.88599999999957 -162.81399999999951 1338.57999999999993
   vertex 484.88599999999957 -162.81399999999965 662.30499999999995
  endloop
 endfacet
 facet normal -0.00000000000000 -1.00000000000000 0.00000000000000
  outer loop
   vertex -213.61400000000015 -162.81399999999965 662.30499999999995
   vertex -569.21400000000040 -162.81399999999951 662.30499999999995
   vertex -651.76400000000046 -162.81399999999951 609.59999999999991
  endloop
 endfacet
 facet normal 0.00000000000000 -1.00000000000000 0.00000000000000
  outer loop
   vertex -213.61400000000015 -162.81399999999965 716.28000000000031
   vertex -213.61400000000015 -162.81399999999965 662.30499999999995
   vertex 129.28599999999960 -162.81399999999951 662.30499999999995
  endloop
 endfacet
 facet normal 0.00000000000000 -1.00000000000000 0.00000000000000
  outer loop
   vertex 484.88599999999957 -162.81399999999965 662.30499999999995
   vertex 516.63599999999951 -162.81399999999951 647.69999999999993
   vertex 516.63599999999951 -162.81399999999951 1338.57999999999993
  endloop
 endfacet
 facet normal 0.00000000000000 -1.00000000000000 0.00000000000000
  outer loop
   vertex 567.43599999999958 -162.81399999999951 609.59999999999991
   vertex 567.43599999999958 -162.81399999999951 647.69999999999993
   vertex 516.63599999999951 -162.81399999999951 647.69999999999993
  endloop
 endfacet
 facet normal 0.00000000000000 -1.00000000000000 0.00000000000000
  outer loop
   vertex 129.28599999999960 -162.81399999999951 662.30499999999995
   vertex 129.28599999999960 -162.81399999999951 716.28000000000031
   vertex -213.61400000000015 -162.81399999999965 716.28000000000031
  endloop
 endfacet
 facet normal 0.00000000000000 -1.00000000000000 -0.00000000000000
  outer loop
   vertex 516.63599999999951 -162.81399999999951 647.69999999999993
   vertex -651.76400000000046 -162.81399999999951 609.59999999999991
   vertex 567.43599999999958 -162.81399999999951 609.59999999999991
  endloop
 endfacet
 facet normal 0.00000000000000 -1.00000000000000 -0.00000000000000
  outer loop
   vertex 129.28599999999960 -162.81399999999951 662.30499999999995
   vertex -651.76400000000046 -162.81399999999951 609.59999999999991
   vertex 516.63599999999951 -162.81399999999951 647.69999999999993
  endloop
 endfacet
 facet normal -0.00000000000000 -1.00000000000000 0.00000000000000
  outer loop
   vertex -600.96400000000028 -162.81399999999951 647.69999999999993
   vertex -651.76400000000046 -162.81399999999951 647.69999999999993
   vertex -651.76400000000046 -162.81399999999951 609.59999999999991
  endloop
 endfacet
 facet normal 0.00000000000001 -0.00000000000000 1.00000000000000
  outer loop
   vertex 567.43599999999958 -162.81399999999951 647.69999999999993
   vertex 567.43599999999958 294.38600000000031 647.69999999999993
   vertex 516.63599999999951 218.18600000000043 647.70000000000027
  endloop
 endfacet
 facet normal 0.00000000000000 0.00000000000000 1.00000000000000
  outer loop
   vertex 567.43599999999958 294.38600000000031 647.69999999999993
   vertex -651.76400000000046 294.38600000000031 647.69999999999993
   vertex -600.96400000000028 218.18600000000043 647.70000000000027
  endloop
 endfacet
 facet normal -0.00000000000000 0.00000000000000 1.00000000000000
  outer loop
   vertex -600.96400000000028 218.18600000000043 647.70000000000027
   vertex 516.63599999999951 218.18600000000043 647.70000000000027
   vertex 567.43599999999958 294.38600000000031 647.69999999999993
  endloop
 endfacet
 facet normal 0.00000000000000 -0.00000000000000 1.00000000000000
  outer loop
   vertex -651.76400000000046 -162.81399999999951 647.69999999999993
   vertex -600.96400000000028 -162.81399999999951 647.69999999999993
   vertex -600.96400000000028 218.18600000000043 647.70000000000027
  endloop
 endfacet
 facet normal -0.00000000000001 -0.00000000000000 1.00000000000000
  outer loop
   vertex -600.96400000000028 218.18600000000043 647.70000000000027
   vertex -651.76400000000046 294.38600000000031 647.69999999999993
   vertex -651.76400000000046 -162.81399999999951 647.69999999999993
  endloop
 endfacet
 facet normal 0.00000000000000 -0.00000000000000 1.00000000000000
  outer loop
   vertex 516.63599999999951 218.18600000000043 647.70000000000027
   vertex 516.63599999999951 -162.81399999999951 647.69999999999993
   vertex 567.43599999999958 -162.81399999999951 647.69999999999993
  endloop
 endfacet
 facet normal 1.00000000000000 0.00000000000000 -0.00000000000000
  outer loop
   vertex 567.43599999999958 294.38600000000031 609.59999999999991
   vertex 567.43599999999958 294.38600000000031 647.69999999999993
   vertex 567.43599999999958 -162.81399999999951 647.69999999999993
  endloop
 endfacet
 facet normal 1.00000000000000 0.00000000000000 0.00000000000000
  outer loop
   vertex 567.43599999999958 -162.81399999999951 647.69999999999993
   vertex 567.43599999999958 -162.81399999999951 609.59999999999991
   vertex 567.43599999999958 294.38600000000031 609.59999999999991
  endloop
 endfacet
 facet normal -1.00000000000000 0.00000000000000 0.00000000000000
  outer loop
   vertex -651.76400000000046 -162.81399999999951 609.59999999999991
   vertex -651.76400000000046 -162.81399999999951 647.69999999999993
   vertex -651.76400000000046 294.38600000000031 647.69999999999993
  endloop
 endfacet
 facet normal -1.00000000000000 0.00000000000000 -0.00000000000000
  outer loop
   vertex -651.76400000000046 294.38600000000031 647.69999999999993
   vertex -651.76400000000046 294.38600000000031 609.59999999999991
   vertex -651.76400000000046 -162.81399999999951 609.59999999999991
  endloop
 endfacet
 facet normal 0.00000000000000 1.00000000000000 0.00000000000000
  outer loop
   vertex -651.76400000000046 294.38600000000031 609.59999999999991
   vertex -651.76400000000046 294.38600000000031 647.69999999999993
   vertex 567.43599999999958 294.38600000000031 647.69999999999993
  endloop
 endfacet
 facet normal 0.00000000000000 1.00000000000000 0.00000000000000
  outer loop
   vertex 567.43599999999958 294.38600000000031 647.69999999999993
   vertex 567.43599999999958 294.38600000000031 609.59999999999991
   vertex -651.76400000000046 294.38600000000031 609.59999999999991
  endloop
 endfacet
 facet normal 0.00000000000000 0.00000000000000 -1.00000000000000
  outer loop
   vertex -651.76400000000046 294.38600000000031 609.59999999999991
   vertex 567.43599999999958 294.38600000000031 609.59999999999991
   vertex 567.43599999999958 -162.81399999999951 609.59999999999991
  endloop
 endfacet
 facet normal 0.00000000000000 0.00000000000000 -1.00000000000000
  outer loop
   vertex 567.43599999999958 -162.81399999999951 609.59999999999991
   vertex -651.76400000000046 -162.81399999999951 609.59999999999991
   vertex -651.76400000000046 294.38600000000031 609.59999999999991
  endloop
 endfacet
 facet normal -1.00000000000000 -0.00000000000000 0.00000000000000
  outer loop
   vertex -346.96400000000085 420.35960512551100 647.70000000000050
   vertex -346.96400000000091 1334.75960512551092 647.70000000000050
   vertex -346.96400000000091 1334.75960512551092 609.60000000000048
  endloop
 endfacet
 facet normal -1.00000000000000 -0.00000000000000 0.00000000000000
  outer loop
   vertex -346.96400000000091 1334.75960512551092 609.60000000000048
   vertex -346.96400000000085 420.35960512551100 609.60000000000048
   vertex -346.96400000000085 420.35960512551100 647.70000000000050
  endloop
 endfacet
 facet normal -0.00000000000000 -1.00000000000000 0.00000000000000
  outer loop
   vertex 262.63599999999946 420.35960512551100 647.70000000000050
   vertex -346.96400000000085 420.35960512551100 647.70000000000050
   vertex -346.96400000000085 420.35960512551100 609.60000000000048
  endloop
 endfacet
 facet normal 0.00000000000000 -1.00000000000000 0.00000000000000
  outer loop
   vertex -346.96400000000085 420.35960512551100 609.60000000000048
   vertex 262.63599999999946 420.35960512551100 609.60000000000048
   vertex 262.63599999999946 420.35960512551100 647.70000000000050
  endloop
 endfacet
 facet normal 1.00000000000000 0.00000000000000 0.00000000000000
  outer loop
   vertex 262.63599999999946 1334.75960512551092 647.70000000000050
   vertex 262.63599999999946 420.35960512551100 647.70000000000050
   vertex 262.63599999999946 420.35960512551100 609.60000000000048
  endloop
 endfacet
 facet normal 1.00000000000000 0.00000000000000 0.00000000000000
  outer loop
   vertex 262.63599999999946 420.35960512551100 609.60000000000048
   vertex 262.63599999999946 1334.75960512551092 609.60000000000048
   vertex 262.63599999999946 1334.75960512551092 647.70000000000050
  endloop
 endfacet
 facet normal -0.00000000000000 1.00000000000000 0.00000000000000
  outer loop
   vertex -346.96400000000091 1334.75960512551092 647.70000000000050
   vertex 262.63599999999946 1334.75960512551092 647.70000000000050
   vertex 262.63599999999946 1334.75960512551092 609.60000000000048
  endloop
 endfacet
 facet normal 0.00000000000000 1.00000000000000 0.00000000000000
  outer loop
   vertex 262.63599999999946 1334.75960512551092 609.60000000000048
   vertex -346.96400000000091 1334.75960512551092 609.60000000000048
   vertex -346.96400000000091 1334.75960512551092 647.70000000000050
  endloop
 endfacet
 facet normal 0.00000000000000 0.00000000000000 -1.00000000000000
  outer loop
   vertex 262.63599999999946 420.35960512551100 609.60000000000048
   vertex -346.96400000000085 420.35960512551100 609.60000000000048
   vertex -346.96400000000091 1334.75960512551092 609.60000000000048
  endloop
 endfacet
 facet normal 0.00000000000000 0.00000000000000 -1.00000000000000
  outer loop
   vertex -346.96400000000091 1334.75960512551092 609.60000000000048
   vertex 262.63599999999946 1334.75960512551092 609.60000000000048
   vertex 262.63599999999946 420.35960512551100 609.60000000000048
  endloop
 endfacet
 facet normal 0.00000000000000 0.00000000000000 1.00000000000000
  outer loop
   vertex -346.96400000000091 1334.75960512551092 647.70000000000050
   vertex -270.76400000000086 1258.55960512551087 647.70000000000050
   vertex 186.43599999999947 1258.55960512551110 647.70000000000050
  endloop
 endfacet
 facet normal 0.00000000000000 0.00000000000000 1.00000000000000
  outer loop
   vertex -346.96400000000085 420.35960512551100 647.70000000000050
   vertex -270.76400000000086 496.55960512551070 647.70000000000050
   vertex -270.76400000000086 1258.55960512551087 647.70000000000050
  endloop
 endfacet
 facet normal 0.00000000000000 0.00000000000000 1.00000000000000
  outer loop
   vertex -270.76400000000086 1258.55960512551087 647.70000000000050
   vertex -346.96400000000091 1334.75960512551092 647.70000000000050
   vertex -346.96400000000085 420.35960512551100 647.70000000000050
  endloop
 endfacet
 facet normal 0.00000000000000 0.00000000000000 1.00000000000000
  outer loop
   vertex 262.63599999999946 420.35960512551100 647.70000000000050
   vertex 186.43599999999947 496.55960512551087 647.70000000000050
   vertex -270.76400000000086 496.55960512551070 647.70000000000050
  endloop
 endfacet
 facet normal 0.00000000000000 0.00000000000000 1.00000000000000
  outer loop
   vertex -270.76400000000086 496.55960512551070 647.70000000000050
   vertex -346.96400000000085 420.35960512551100 647.70000000000050
   vertex 262.63599999999946 420.35960512551100 647.70000000000050
  endloop
 endfacet
 facet normal 0.00000000000000 -0.00000000000000 1.00000000000000
  outer loop
   vertex 262.63599999999946 420.35960512551100 647.70000000000050
   vertex 262.63599999999946 1334.75960512551092 647.70000000000050
   vertex 186.43599999999947 1258.55960512551110 647.70000000000050
  endloop
 endfacet
 facet normal 0.00000000000000 0.00000000000000 1.00000000000000
  outer loop
   vertex 186.43599999999947 1258.55960512551110 647.70000000000050
   vertex 186.43599999999947 496.55960512551087 647.70000000000050
   vertex 262.63599999999946 420.35960512551100 647.70000000000050
  endloop
 endfacet
 facet normal 0.00000000000000 -0.00000000000000 1.00000000000000
  outer loop
   vertex 186.43599999999947 1258.55960512551110 647.70000000000050
   vertex 262.63599999999946 1334.75960512551092 647.70000000000050
   vertex -346.96400000000091 1334.75960512551092 647.70000000000050
  endloop
 endfacet
 facet normal 0.00000000000000 -1.00000000000000 0.00000000000000
  outer loop
   vertex -270.76400000000086 1258.55960512551087 647.70000000000050
   vertex -270.76400000000086 1258.55960512551087 635.00000000000023
   vertex 186.43599999999947 1258.55960512551110 635.00000000000023
  endloop
 endfacet
 facet normal 0.00000000000000 -1.00000000000000 0.00000000000000
  outer loop
   vertex 186.43599999999947 1258.55960512551110 635.00000000000023
   vertex 186.43599999999947 1258.55960512551110 647.70000000000050
   vertex -270.76400000000086 1258.55960512551087 647.70000000000050
  endloop
 endfacet
 facet normal -1.00000000000000 0.00000000000000 -0.00000000000000
  outer loop
   vertex 186.43599999999947 1258.55960512551110 647.70000000000050
   vertex 186.43599999999947 1258.55960512551110 635.00000000000023
   vertex 186.43599999999947 496.55960512551087 635.00000000000023
  endloop
 endfacet
 facet normal -1.00000000000000 0.00000000000000 0.00000000000000
  outer loop
   vertex 186.43599999999947 496.55960512551087 635.00000000000023
   vertex 186.43599999999947 496.55960512551087 647.70000000000050
   vertex 186.43599999999947 1258.55960512551110 647.70000000000050
  endloop
 endfacet
 facet normal -0.00000000000000 1.00000000000000 0.00000000000000
  outer loop
   vertex 186.43599999999947 496.55960512551087 647.70000000000050
   vertex 186.43599999999947 496.55960512551087 635.00000000000023
   vertex -270.76400000000086 496.55960512551070 635.00000000000023
  endloop
 endfacet
 facet normal -0.00000000000000 1.00000000000000 0.00000000000000
  outer loop
   vertex -270.76400000000086 496.55960512551070 635.00000000000023
   vertex -270.76400000000086 496.55960512551070 647.70000000000050
   vertex 186.43599999999947 496.55960512551087 647.70000000000050
  endloop
 endfacet
 facet normal 1.00000000000000 0.00000000000000 0.00000000000000
  outer loop
   vertex -270.76400000000086 496.55960512551070 647.70000000000050
   vertex -270.76400000000086 496.55960512551070 635.00000000000023
   vertex -270.76400000000086 1258.55960512551087 635.00000000000023
  endloop
 endfacet
 facet normal 1.00000000000000 0.00000000000000 -0.00000000000000
  outer loop
   vertex -270.76400000000086 1258.55960512551087 635.00000000000023
   vertex -270.76400000000086 1258.55960512551087 647.70000000000050
   vertex -270.76400000000086 496.55960512551070 647.70000000000050
  endloop
 endfacet
 facet normal 0.00000000000000 -0.00000000000000 1.00000000000000
  outer loop
   vertex 186.43599999999947 496.55960512551087 635.00000000000023
   vertex 186.43599999999947 1258.55960512551110 635.00000000000023
   vertex -270.76400000000086 1258.55960512551087 635.00000000000023
  endloop
 endfacet
 facet normal 0.00000000000000 0.00000000000000 1.00000000000000
  outer loop
   vertex -270.76400000000086 1258.55960512551087 635.00000000000023
   vertex -270.76400000000086 496.55960512551070 635.00000000000023
   vertex 186.43599999999947 496.55960512551087 635.00000000000023
  endloop
 endfacet
endsolid STL file created by Vectorworks 2015 (Build 234280) (64-Bit)
